<svg viewBox="0 0 800 600" height="600" width="800" xmlns="http://www.w3.org/2000/svg" version="1.1">
    <g transform-origin="center" transform="scale(1, 1) rotate(0)">
        <rect x="0" y="0" width="800" height="600" fill="#ffffff"></rect>
        <linearGradient id="linear-gradient-r4">
            <stop offset="0%" stop-color="#ff0005ff" stop-opacity="100%"></stop>
            <stop offset="100%" stop-color="#ff0092ff" stop-opacity="100%"></stop>
        </linearGradient>
        <filter id="shadow-r4" x="0" width="100%" y="-20%" height="150%">
            <feDropShadow dx="15" dy="50" stdDeviation="0" flood-color="#00000000"></feDropShadow>
        </filter>
        <path d="M0 0 0,398.14240538841113 C 10.285714285714286,397.86068805089036 36.57142857142857,392.77293811116925 57.142857142857146,396.57730906885115 C 77.71428571428572,400.38168002653305 93.71428571428572,419.8895168196 114.28571428571429,419.27779959775506 C 134.85714285714286,418.66608237591015 150.8571428571429,401.17168606081793 171.42857142857144,393.1788800586015 C 192.00000000000003,385.1860740563851 208.00000000000003,388.4943951368742 228.57142857142858,374.8733218076639 C 249.14285714285714,361.2522484784536 265.14285714285717,324.92779100544374 285.7142857142857,317.5062504518777 C 306.2857142857143,310.08470989831164 322.28571428571433,329.8855995291062 342.8571428571429,333.64254095451906 C 363.42857142857144,337.39948237993195 379.42857142857144,331.4337891010009 400,338.37814725972714 C 420.57142857142856,345.3225054184534 436.5714285714286,365.93761437650954 457.14285714285717,372.2223085029982 C 477.7142857142857,378.50700262948686 493.7142857142858,377.58875460830143 514.2857142857143,373.29311462910846 C 534.8571428571429,368.9974746499155 550.8571428571429,347.25811320475304 571.4285714285714,348.35764195192604 C 592,349.4571706990991 608,376.1914000351243 628.5714285714286,379.4016076689586 C 649.1428571428571,382.61181530279293 665.1428571428572,372.7906877509989 685.7142857142858,366.19212880656124 C 706.2857142857143,359.59356986212356 722.2857142857143,339.05806312842293 742.8571428571429,342.7429468665272 C 763.4285714285714,346.4278306046314 789.7142857142857,378.7579686420523 800,386.66370512936265 L800 600 L0 600Z" fill="none" stroke-linecap="round" stroke-width="1" style="transition: all 0.4s cubic-bezier(0.16, 1, 0.3, 1) 0s; fill: url(&quot;#linear-gradient-r4&quot;);" filter="url(#shadow-r4)"></path>
        <path d="M0 0 0,502.1180445468519 C 10.285714285714286,507.2915595657779 36.57142857142858,531.6343075861065 57.142857142857146,530.8597946519964 C 77.71428571428572,530.0852817178862 93.71428571428572,507.93511864151947 114.28571428571429,497.81519491290675 C 134.85714285714286,487.69527118429403 150.85714285714286,491.8840325523326 171.42857142857144,474.63799615970345 C 192.00000000000003,457.3919597670743 208,411.4005095794732 228.57142857142858,402.0038816205226 C 249.14285714285717,392.607253661572 265.14285714285717,417.67773488765863 285.7142857142857,422.4345074988669 C 306.2857142857143,427.1912801100751 322.28571428571433,419.6379426520737 342.8571428571429,428.43039612723516 C 363.42857142857144,437.2228496023966 379.42857142857144,463.3242375573549 400,471.28147124976385 C 420.57142857142856,479.23870494217283 436.5714285714286,478.0760844637365 457.14285714285717,472.63724997395184 C 477.7142857142857,467.1984154841672 493.7142857142858,439.6735788156954 514.2857142857143,441.0657240842935 C 534.8571428571429,442.4578693528916 550.8571428571429,476.30685327027834 571.4285714285714,480.3713903550524 C 592,484.4359274398265 608,472.0011127169905 628.5714285714286,463.64648566637186 C 649.1428571428571,455.2918586157532 665.1428571428572,429.2912573480839 685.7142857142858,433.9567956293933 C 706.2857142857143,438.6223339107027 722.2857142857143,478.3927253683805 742.8571428571429,489.5661427847575 C 763.4285714285714,500.7395602011345 789.7142857142857,494.86760190307626 800,496.0313368314877 L800 600 L0 600Z" fill="none" stroke-linecap="round" stroke-width="1" style="transition: all 0.4s cubic-bezier(0.16, 1, 0.3, 1) 0s; fill: url(&quot;#linear-gradient-r4&quot;);" filter="url(#shadow-r4)"></path>
    </g>
</svg>