<svg width="1320" height="305" viewBox="0 0 1320 305" fill="none" xmlns="http://www.w3.org/2000/svg">
<rect width="1320" height="304" transform="translate(0 0.253906)" fill="white"/>
<rect width="232" height="248" transform="translate(137.5 28.2539)" fill="white"/>
<rect x="145.5" y="36.2539" width="152" height="52" rx="26" fill="#E9AFAF"/>
<path d="M174.375 57.5742V70.2539H170.988V57.5742H174.375ZM170.777 54.2695C170.777 53.7773 170.949 53.3711 171.293 53.0508C171.637 52.7305 172.098 52.5703 172.676 52.5703C173.246 52.5703 173.703 52.7305 174.047 53.0508C174.398 53.3711 174.574 53.7773 174.574 54.2695C174.574 54.7617 174.398 55.168 174.047 55.4883C173.703 55.8086 173.246 55.9688 172.676 55.9688C172.098 55.9688 171.637 55.8086 171.293 55.4883C170.949 55.168 170.777 54.7617 170.777 54.2695ZM180.539 60.1992V70.2539H177.152V57.5742H180.328L180.539 60.1992ZM180.07 63.4688H179.133C179.133 62.5859 179.238 61.7734 179.449 61.0312C179.668 60.2812 179.984 59.6328 180.398 59.0859C180.82 58.5312 181.34 58.1016 181.957 57.7969C182.574 57.4922 183.289 57.3398 184.102 57.3398C184.664 57.3398 185.18 57.4258 185.648 57.5977C186.117 57.7617 186.52 58.0234 186.855 58.3828C187.199 58.7344 187.465 59.1953 187.652 59.7656C187.84 60.3281 187.934 61.0039 187.934 61.793V70.2539H184.559V62.168C184.559 61.5898 184.48 61.1445 184.324 60.832C184.168 60.5195 183.945 60.3008 183.656 60.1758C183.375 60.0508 183.035 59.9883 182.637 59.9883C182.199 59.9883 181.816 60.0781 181.488 60.2578C181.168 60.4375 180.902 60.6875 180.691 61.0078C180.48 61.3203 180.324 61.6875 180.223 62.1094C180.121 62.5312 180.07 62.9844 180.07 63.4688ZM187.617 63.082L186.41 63.2344C186.41 62.4062 186.512 61.6367 186.715 60.9258C186.926 60.2148 187.234 59.5898 187.641 59.0508C188.055 58.5117 188.566 58.0938 189.176 57.7969C189.785 57.4922 190.488 57.3398 191.285 57.3398C191.895 57.3398 192.449 57.4297 192.949 57.6094C193.449 57.7812 193.875 58.0586 194.227 58.4414C194.586 58.8164 194.859 59.3086 195.047 59.918C195.242 60.5273 195.34 61.2734 195.34 62.1562V70.2539H191.953V62.1562C191.953 61.5703 191.875 61.125 191.719 60.8203C191.57 60.5078 191.352 60.293 191.062 60.1758C190.781 60.0508 190.445 59.9883 190.055 59.9883C189.648 59.9883 189.293 60.0703 188.988 60.2344C188.684 60.3906 188.43 60.6094 188.227 60.8906C188.023 61.1719 187.871 61.5 187.77 61.875C187.668 62.2422 187.617 62.6445 187.617 63.082ZM204.797 67.3945V61.7461C204.797 61.3398 204.73 60.9922 204.598 60.7031C204.465 60.4062 204.258 60.1758 203.977 60.0117C203.703 59.8477 203.348 59.7656 202.91 59.7656C202.535 59.7656 202.211 59.832 201.938 59.9648C201.664 60.0898 201.453 60.2734 201.305 60.5156C201.156 60.75 201.082 61.0273 201.082 61.3477H197.707C197.707 60.8086 197.832 60.2969 198.082 59.8125C198.332 59.3281 198.695 58.9023 199.172 58.5352C199.648 58.1602 200.215 57.8672 200.871 57.6562C201.535 57.4453 202.277 57.3398 203.098 57.3398C204.082 57.3398 204.957 57.5039 205.723 57.832C206.488 58.1602 207.09 58.6523 207.527 59.3086C207.973 59.9648 208.195 60.7852 208.195 61.7695V67.1953C208.195 67.8906 208.238 68.4609 208.324 68.9062C208.41 69.3438 208.535 69.7266 208.699 70.0547V70.2539H205.289C205.125 69.9102 205 69.4805 204.914 68.9648C204.836 68.4414 204.797 67.918 204.797 67.3945ZM205.242 62.5312L205.266 64.4414H203.379C202.934 64.4414 202.547 64.4922 202.219 64.5938C201.891 64.6953 201.621 64.8398 201.41 65.0273C201.199 65.207 201.043 65.418 200.941 65.6602C200.848 65.9023 200.801 66.168 200.801 66.457C200.801 66.7461 200.867 67.0078 201 67.2422C201.133 67.4688 201.324 67.6484 201.574 67.7812C201.824 67.9062 202.117 67.9688 202.453 67.9688C202.961 67.9688 203.402 67.8672 203.777 67.6641C204.152 67.4609 204.441 67.2109 204.645 66.9141C204.855 66.6172 204.965 66.3359 204.973 66.0703L205.863 67.5C205.738 67.8203 205.566 68.1523 205.348 68.4961C205.137 68.8398 204.867 69.1641 204.539 69.4688C204.211 69.7656 203.816 70.0117 203.355 70.207C202.895 70.3945 202.348 70.4883 201.715 70.4883C200.91 70.4883 200.18 70.3281 199.523 70.0078C198.875 69.6797 198.359 69.2305 197.977 68.6602C197.602 68.082 197.414 67.4258 197.414 66.6914C197.414 66.0273 197.539 65.4375 197.789 64.9219C198.039 64.4062 198.406 63.9727 198.891 63.6211C199.383 63.2617 199.996 62.9922 200.73 62.8125C201.465 62.625 202.316 62.5312 203.285 62.5312H205.242ZM218.824 57.5742H221.883V69.832C221.883 70.9883 221.625 71.9688 221.109 72.7734C220.602 73.5859 219.891 74.1992 218.977 74.6133C218.062 75.0352 217 75.2461 215.789 75.2461C215.258 75.2461 214.695 75.1758 214.102 75.0352C213.516 74.8945 212.953 74.6758 212.414 74.3789C211.883 74.082 211.438 73.707 211.078 73.2539L212.566 71.2617C212.957 71.7148 213.41 72.0664 213.926 72.3164C214.441 72.5742 215.012 72.7031 215.637 72.7031C216.246 72.7031 216.762 72.5898 217.184 72.3633C217.605 72.1445 217.93 71.8203 218.156 71.3906C218.383 70.9688 218.496 70.457 218.496 69.8555V60.5039L218.824 57.5742ZM210.293 64.0664V63.8203C210.293 62.8516 210.41 61.9727 210.645 61.1836C210.887 60.3867 211.227 59.7031 211.664 59.1328C212.109 58.5625 212.648 58.1211 213.281 57.8086C213.914 57.4961 214.629 57.3398 215.426 57.3398C216.27 57.3398 216.977 57.4961 217.547 57.8086C218.117 58.1211 218.586 58.5664 218.953 59.1445C219.32 59.7148 219.605 60.3906 219.809 61.1719C220.02 61.9453 220.184 62.793 220.301 63.7148V64.2539C220.184 65.1367 220.008 65.957 219.773 66.7148C219.539 67.4727 219.23 68.1367 218.848 68.707C218.465 69.2695 217.988 69.707 217.418 70.0195C216.855 70.332 216.184 70.4883 215.402 70.4883C214.621 70.4883 213.914 70.3281 213.281 70.0078C212.656 69.6875 212.121 69.2383 211.676 68.6602C211.23 68.082 210.887 67.4023 210.645 66.6211C210.41 65.8398 210.293 64.9883 210.293 64.0664ZM213.668 63.8203V64.0664C213.668 64.5898 213.719 65.0781 213.82 65.5312C213.922 65.9844 214.078 66.3867 214.289 66.7383C214.508 67.082 214.777 67.3516 215.098 67.5469C215.426 67.7344 215.812 67.8281 216.258 67.8281C216.875 67.8281 217.379 67.6992 217.77 67.4414C218.16 67.1758 218.453 66.8125 218.648 66.3516C218.844 65.8906 218.957 65.3594 218.988 64.7578V63.2227C218.973 62.7305 218.906 62.2891 218.789 61.8984C218.672 61.5 218.508 61.1602 218.297 60.8789C218.086 60.5977 217.812 60.3789 217.477 60.2227C217.141 60.0664 216.742 59.9883 216.281 59.9883C215.836 59.9883 215.449 60.0898 215.121 60.293C214.801 60.4883 214.531 60.7578 214.312 61.1016C214.102 61.4453 213.941 61.8516 213.832 62.3203C213.723 62.7812 213.668 63.2812 213.668 63.8203ZM230.344 70.4883C229.359 70.4883 228.477 70.332 227.695 70.0195C226.914 69.6992 226.25 69.2578 225.703 68.6953C225.164 68.1328 224.75 67.4805 224.461 66.7383C224.172 65.9883 224.027 65.1914 224.027 64.3477V63.8789C224.027 62.918 224.164 62.0391 224.438 61.2422C224.711 60.4453 225.102 59.7539 225.609 59.168C226.125 58.582 226.75 58.1328 227.484 57.8203C228.219 57.5 229.047 57.3398 229.969 57.3398C230.867 57.3398 231.664 57.4883 232.359 57.7852C233.055 58.082 233.637 58.5039 234.105 59.0508C234.582 59.5977 234.941 60.2539 235.184 61.0195C235.426 61.7773 235.547 62.6211 235.547 63.5508V64.957H225.469V62.707H232.23V62.4492C232.23 61.9805 232.145 61.5625 231.973 61.1953C231.809 60.8203 231.559 60.5234 231.223 60.3047C230.887 60.0859 230.457 59.9766 229.934 59.9766C229.488 59.9766 229.105 60.0742 228.785 60.2695C228.465 60.4648 228.203 60.7383 228 61.0898C227.805 61.4414 227.656 61.8555 227.555 62.332C227.461 62.8008 227.414 63.3164 227.414 63.8789V64.3477C227.414 64.8555 227.484 65.3242 227.625 65.7539C227.773 66.1836 227.98 66.5547 228.246 66.8672C228.52 67.1797 228.848 67.4219 229.23 67.5938C229.621 67.7656 230.062 67.8516 230.555 67.8516C231.164 67.8516 231.73 67.7344 232.254 67.5C232.785 67.2578 233.242 66.8945 233.625 66.4102L235.266 68.1914C235 68.5742 234.637 68.9414 234.176 69.293C233.723 69.6445 233.176 69.9336 232.535 70.1602C231.895 70.3789 231.164 70.4883 230.344 70.4883ZM244.125 61.6055V64.2539H237.504V61.6055H244.125ZM253.781 67.3945V61.7461C253.781 61.3398 253.715 60.9922 253.582 60.7031C253.449 60.4062 253.242 60.1758 252.961 60.0117C252.688 59.8477 252.332 59.7656 251.895 59.7656C251.52 59.7656 251.195 59.832 250.922 59.9648C250.648 60.0898 250.438 60.2734 250.289 60.5156C250.141 60.75 250.066 61.0273 250.066 61.3477H246.691C246.691 60.8086 246.816 60.2969 247.066 59.8125C247.316 59.3281 247.68 58.9023 248.156 58.5352C248.633 58.1602 249.199 57.8672 249.855 57.6562C250.52 57.4453 251.262 57.3398 252.082 57.3398C253.066 57.3398 253.941 57.5039 254.707 57.832C255.473 58.1602 256.074 58.6523 256.512 59.3086C256.957 59.9648 257.18 60.7852 257.18 61.7695V67.1953C257.18 67.8906 257.223 68.4609 257.309 68.9062C257.395 69.3438 257.52 69.7266 257.684 70.0547V70.2539H254.273C254.109 69.9102 253.984 69.4805 253.898 68.9648C253.82 68.4414 253.781 67.918 253.781 67.3945ZM254.227 62.5312L254.25 64.4414H252.363C251.918 64.4414 251.531 64.4922 251.203 64.5938C250.875 64.6953 250.605 64.8398 250.395 65.0273C250.184 65.207 250.027 65.418 249.926 65.6602C249.832 65.9023 249.785 66.168 249.785 66.457C249.785 66.7461 249.852 67.0078 249.984 67.2422C250.117 67.4688 250.309 67.6484 250.559 67.7812C250.809 67.9062 251.102 67.9688 251.438 67.9688C251.945 67.9688 252.387 67.8672 252.762 67.6641C253.137 67.4609 253.426 67.2109 253.629 66.9141C253.84 66.6172 253.949 66.3359 253.957 66.0703L254.848 67.5C254.723 67.8203 254.551 68.1523 254.332 68.4961C254.121 68.8398 253.852 69.1641 253.523 69.4688C253.195 69.7656 252.801 70.0117 252.34 70.207C251.879 70.3945 251.332 70.4883 250.699 70.4883C249.895 70.4883 249.164 70.3281 248.508 70.0078C247.859 69.6797 247.344 69.2305 246.961 68.6602C246.586 68.082 246.398 67.4258 246.398 66.6914C246.398 66.0273 246.523 65.4375 246.773 64.9219C247.023 64.4062 247.391 63.9727 247.875 63.6211C248.367 63.2617 248.98 62.9922 249.715 62.8125C250.449 62.625 251.301 62.5312 252.27 62.5312H254.227ZM263.344 52.2539V70.2539H259.957V52.2539H263.344ZM272.344 57.5742V59.9648H264.961V57.5742H272.344ZM266.789 54.4453H270.164V66.4336C270.164 66.8008 270.211 67.082 270.305 67.2773C270.406 67.4727 270.555 67.6094 270.75 67.6875C270.945 67.7578 271.191 67.793 271.488 67.793C271.699 67.793 271.887 67.7852 272.051 67.7695C272.223 67.7461 272.367 67.7227 272.484 67.6992L272.496 70.1836C272.207 70.2773 271.895 70.3516 271.559 70.4062C271.223 70.4609 270.852 70.4883 270.445 70.4883C269.703 70.4883 269.055 70.3672 268.5 70.125C267.953 69.875 267.531 69.4766 267.234 68.9297C266.938 68.3828 266.789 67.6641 266.789 66.7734V54.4453Z" fill="#1E1E1E"/>
<rect x="145.5" y="96.2539" width="216" height="52" rx="26" fill="#E9AFAF"/>
<path d="M174.375 117.574V130.254H170.988V117.574H174.375ZM170.777 114.27C170.777 113.777 170.949 113.371 171.293 113.051C171.637 112.73 172.098 112.57 172.676 112.57C173.246 112.57 173.703 112.73 174.047 113.051C174.398 113.371 174.574 113.777 174.574 114.27C174.574 114.762 174.398 115.168 174.047 115.488C173.703 115.809 173.246 115.969 172.676 115.969C172.098 115.969 171.637 115.809 171.293 115.488C170.949 115.168 170.777 114.762 170.777 114.27ZM180.469 120.281V130.254H177.094V117.574H180.258L180.469 120.281ZM179.977 123.469H179.062C179.062 122.531 179.184 121.688 179.426 120.938C179.668 120.18 180.008 119.535 180.445 119.004C180.883 118.465 181.402 118.055 182.004 117.773C182.613 117.484 183.293 117.34 184.043 117.34C184.637 117.34 185.18 117.426 185.672 117.598C186.164 117.77 186.586 118.043 186.938 118.418C187.297 118.793 187.57 119.289 187.758 119.906C187.953 120.523 188.051 121.277 188.051 122.168V130.254H184.652V122.156C184.652 121.594 184.574 121.156 184.418 120.844C184.262 120.531 184.031 120.312 183.727 120.188C183.43 120.055 183.062 119.988 182.625 119.988C182.172 119.988 181.777 120.078 181.441 120.258C181.113 120.438 180.84 120.688 180.621 121.008C180.41 121.32 180.25 121.688 180.141 122.109C180.031 122.531 179.977 122.984 179.977 123.469ZM193.992 120.012V135.129H190.617V117.574H193.746L193.992 120.012ZM202.02 123.773V124.02C202.02 124.941 201.91 125.797 201.691 126.586C201.48 127.375 201.168 128.062 200.754 128.648C200.34 129.227 199.824 129.68 199.207 130.008C198.598 130.328 197.895 130.488 197.098 130.488C196.324 130.488 195.652 130.332 195.082 130.02C194.512 129.707 194.031 129.27 193.641 128.707C193.258 128.137 192.949 127.477 192.715 126.727C192.48 125.977 192.301 125.172 192.176 124.312V123.668C192.301 122.746 192.48 121.902 192.715 121.137C192.949 120.363 193.258 119.695 193.641 119.133C194.031 118.562 194.508 118.121 195.07 117.809C195.641 117.496 196.309 117.34 197.074 117.34C197.879 117.34 198.586 117.492 199.195 117.797C199.812 118.102 200.328 118.539 200.742 119.109C201.164 119.68 201.48 120.359 201.691 121.148C201.91 121.938 202.02 122.812 202.02 123.773ZM198.633 124.02V123.773C198.633 123.234 198.586 122.738 198.492 122.285C198.406 121.824 198.266 121.422 198.07 121.078C197.883 120.734 197.633 120.469 197.32 120.281C197.016 120.086 196.645 119.988 196.207 119.988C195.746 119.988 195.352 120.062 195.023 120.211C194.703 120.359 194.441 120.574 194.238 120.855C194.035 121.137 193.883 121.473 193.781 121.863C193.68 122.254 193.617 122.695 193.594 123.188V124.816C193.633 125.395 193.742 125.914 193.922 126.375C194.102 126.828 194.379 127.188 194.754 127.453C195.129 127.719 195.621 127.852 196.23 127.852C196.676 127.852 197.051 127.754 197.355 127.559C197.66 127.355 197.906 127.078 198.094 126.727C198.289 126.375 198.426 125.969 198.504 125.508C198.59 125.047 198.633 124.551 198.633 124.02ZM211.617 127.219V117.574H214.992V130.254H211.816L211.617 127.219ZM211.992 124.617L212.988 124.594C212.988 125.438 212.891 126.223 212.695 126.949C212.5 127.668 212.207 128.293 211.816 128.824C211.426 129.348 210.934 129.758 210.34 130.055C209.746 130.344 209.047 130.488 208.242 130.488C207.625 130.488 207.055 130.402 206.531 130.23C206.016 130.051 205.57 129.773 205.195 129.398C204.828 129.016 204.539 128.527 204.328 127.934C204.125 127.332 204.023 126.609 204.023 125.766V117.574H207.398V125.789C207.398 126.164 207.441 126.48 207.527 126.738C207.621 126.996 207.75 127.207 207.914 127.371C208.078 127.535 208.27 127.652 208.488 127.723C208.715 127.793 208.965 127.828 209.238 127.828C209.934 127.828 210.48 127.688 210.879 127.406C211.285 127.125 211.57 126.742 211.734 126.258C211.906 125.766 211.992 125.219 211.992 124.617ZM223.781 117.574V119.965H216.398V117.574H223.781ZM218.227 114.445H221.602V126.434C221.602 126.801 221.648 127.082 221.742 127.277C221.844 127.473 221.992 127.609 222.188 127.688C222.383 127.758 222.629 127.793 222.926 127.793C223.137 127.793 223.324 127.785 223.488 127.77C223.66 127.746 223.805 127.723 223.922 127.699L223.934 130.184C223.645 130.277 223.332 130.352 222.996 130.406C222.66 130.461 222.289 130.488 221.883 130.488C221.141 130.488 220.492 130.367 219.938 130.125C219.391 129.875 218.969 129.477 218.672 128.93C218.375 128.383 218.227 127.664 218.227 126.773V114.445ZM232.359 121.605V124.254H225.738V121.605H232.359ZM238.734 117.574V130.254H235.348V117.574H238.734ZM235.137 114.27C235.137 113.777 235.309 113.371 235.652 113.051C235.996 112.73 236.457 112.57 237.035 112.57C237.605 112.57 238.062 112.73 238.406 113.051C238.758 113.371 238.934 113.777 238.934 114.27C238.934 114.762 238.758 115.168 238.406 115.488C238.062 115.809 237.605 115.969 237.035 115.969C236.457 115.969 235.996 115.809 235.652 115.488C235.309 115.168 235.137 114.762 235.137 114.27ZM244.898 120.199V130.254H241.512V117.574H244.688L244.898 120.199ZM244.43 123.469H243.492C243.492 122.586 243.598 121.773 243.809 121.031C244.027 120.281 244.344 119.633 244.758 119.086C245.18 118.531 245.699 118.102 246.316 117.797C246.934 117.492 247.648 117.34 248.461 117.34C249.023 117.34 249.539 117.426 250.008 117.598C250.477 117.762 250.879 118.023 251.215 118.383C251.559 118.734 251.824 119.195 252.012 119.766C252.199 120.328 252.293 121.004 252.293 121.793V130.254H248.918V122.168C248.918 121.59 248.84 121.145 248.684 120.832C248.527 120.52 248.305 120.301 248.016 120.176C247.734 120.051 247.395 119.988 246.996 119.988C246.559 119.988 246.176 120.078 245.848 120.258C245.527 120.438 245.262 120.688 245.051 121.008C244.84 121.32 244.684 121.688 244.582 122.109C244.48 122.531 244.43 122.984 244.43 123.469ZM251.977 123.082L250.77 123.234C250.77 122.406 250.871 121.637 251.074 120.926C251.285 120.215 251.594 119.59 252 119.051C252.414 118.512 252.926 118.094 253.535 117.797C254.145 117.492 254.848 117.34 255.645 117.34C256.254 117.34 256.809 117.43 257.309 117.609C257.809 117.781 258.234 118.059 258.586 118.441C258.945 118.816 259.219 119.309 259.406 119.918C259.602 120.527 259.699 121.273 259.699 122.156V130.254H256.312V122.156C256.312 121.57 256.234 121.125 256.078 120.82C255.93 120.508 255.711 120.293 255.422 120.176C255.141 120.051 254.805 119.988 254.414 119.988C254.008 119.988 253.652 120.07 253.348 120.234C253.043 120.391 252.789 120.609 252.586 120.891C252.383 121.172 252.23 121.5 252.129 121.875C252.027 122.242 251.977 122.645 251.977 123.082ZM269.156 127.395V121.746C269.156 121.34 269.09 120.992 268.957 120.703C268.824 120.406 268.617 120.176 268.336 120.012C268.062 119.848 267.707 119.766 267.27 119.766C266.895 119.766 266.57 119.832 266.297 119.965C266.023 120.09 265.812 120.273 265.664 120.516C265.516 120.75 265.441 121.027 265.441 121.348H262.066C262.066 120.809 262.191 120.297 262.441 119.812C262.691 119.328 263.055 118.902 263.531 118.535C264.008 118.16 264.574 117.867 265.23 117.656C265.895 117.445 266.637 117.34 267.457 117.34C268.441 117.34 269.316 117.504 270.082 117.832C270.848 118.16 271.449 118.652 271.887 119.309C272.332 119.965 272.555 120.785 272.555 121.77V127.195C272.555 127.891 272.598 128.461 272.684 128.906C272.77 129.344 272.895 129.727 273.059 130.055V130.254H269.648C269.484 129.91 269.359 129.48 269.273 128.965C269.195 128.441 269.156 127.918 269.156 127.395ZM269.602 122.531L269.625 124.441H267.738C267.293 124.441 266.906 124.492 266.578 124.594C266.25 124.695 265.98 124.84 265.77 125.027C265.559 125.207 265.402 125.418 265.301 125.66C265.207 125.902 265.16 126.168 265.16 126.457C265.16 126.746 265.227 127.008 265.359 127.242C265.492 127.469 265.684 127.648 265.934 127.781C266.184 127.906 266.477 127.969 266.812 127.969C267.32 127.969 267.762 127.867 268.137 127.664C268.512 127.461 268.801 127.211 269.004 126.914C269.215 126.617 269.324 126.336 269.332 126.07L270.223 127.5C270.098 127.82 269.926 128.152 269.707 128.496C269.496 128.84 269.227 129.164 268.898 129.469C268.57 129.766 268.176 130.012 267.715 130.207C267.254 130.395 266.707 130.488 266.074 130.488C265.27 130.488 264.539 130.328 263.883 130.008C263.234 129.68 262.719 129.23 262.336 128.66C261.961 128.082 261.773 127.426 261.773 126.691C261.773 126.027 261.898 125.438 262.148 124.922C262.398 124.406 262.766 123.973 263.25 123.621C263.742 123.262 264.355 122.992 265.09 122.812C265.824 122.625 266.676 122.531 267.645 122.531H269.602ZM283.184 117.574H286.242V129.832C286.242 130.988 285.984 131.969 285.469 132.773C284.961 133.586 284.25 134.199 283.336 134.613C282.422 135.035 281.359 135.246 280.148 135.246C279.617 135.246 279.055 135.176 278.461 135.035C277.875 134.895 277.312 134.676 276.773 134.379C276.242 134.082 275.797 133.707 275.438 133.254L276.926 131.262C277.316 131.715 277.77 132.066 278.285 132.316C278.801 132.574 279.371 132.703 279.996 132.703C280.605 132.703 281.121 132.59 281.543 132.363C281.965 132.145 282.289 131.82 282.516 131.391C282.742 130.969 282.855 130.457 282.855 129.855V120.504L283.184 117.574ZM274.652 124.066V123.82C274.652 122.852 274.77 121.973 275.004 121.184C275.246 120.387 275.586 119.703 276.023 119.133C276.469 118.562 277.008 118.121 277.641 117.809C278.273 117.496 278.988 117.34 279.785 117.34C280.629 117.34 281.336 117.496 281.906 117.809C282.477 118.121 282.945 118.566 283.312 119.145C283.68 119.715 283.965 120.391 284.168 121.172C284.379 121.945 284.543 122.793 284.66 123.715V124.254C284.543 125.137 284.367 125.957 284.133 126.715C283.898 127.473 283.59 128.137 283.207 128.707C282.824 129.27 282.348 129.707 281.777 130.02C281.215 130.332 280.543 130.488 279.762 130.488C278.98 130.488 278.273 130.328 277.641 130.008C277.016 129.688 276.48 129.238 276.035 128.66C275.59 128.082 275.246 127.402 275.004 126.621C274.77 125.84 274.652 124.988 274.652 124.066ZM278.027 123.82V124.066C278.027 124.59 278.078 125.078 278.18 125.531C278.281 125.984 278.438 126.387 278.648 126.738C278.867 127.082 279.137 127.352 279.457 127.547C279.785 127.734 280.172 127.828 280.617 127.828C281.234 127.828 281.738 127.699 282.129 127.441C282.52 127.176 282.812 126.812 283.008 126.352C283.203 125.891 283.316 125.359 283.348 124.758V123.223C283.332 122.73 283.266 122.289 283.148 121.898C283.031 121.5 282.867 121.16 282.656 120.879C282.445 120.598 282.172 120.379 281.836 120.223C281.5 120.066 281.102 119.988 280.641 119.988C280.195 119.988 279.809 120.09 279.48 120.293C279.16 120.488 278.891 120.758 278.672 121.102C278.461 121.445 278.301 121.852 278.191 122.32C278.082 122.781 278.027 123.281 278.027 123.82ZM294.703 130.488C293.719 130.488 292.836 130.332 292.055 130.02C291.273 129.699 290.609 129.258 290.062 128.695C289.523 128.133 289.109 127.48 288.82 126.738C288.531 125.988 288.387 125.191 288.387 124.348V123.879C288.387 122.918 288.523 122.039 288.797 121.242C289.07 120.445 289.461 119.754 289.969 119.168C290.484 118.582 291.109 118.133 291.844 117.82C292.578 117.5 293.406 117.34 294.328 117.34C295.227 117.34 296.023 117.488 296.719 117.785C297.414 118.082 297.996 118.504 298.465 119.051C298.941 119.598 299.301 120.254 299.543 121.02C299.785 121.777 299.906 122.621 299.906 123.551V124.957H289.828V122.707H296.59V122.449C296.59 121.98 296.504 121.562 296.332 121.195C296.168 120.82 295.918 120.523 295.582 120.305C295.246 120.086 294.816 119.977 294.293 119.977C293.848 119.977 293.465 120.074 293.145 120.27C292.824 120.465 292.562 120.738 292.359 121.09C292.164 121.441 292.016 121.855 291.914 122.332C291.82 122.801 291.773 123.316 291.773 123.879V124.348C291.773 124.855 291.844 125.324 291.984 125.754C292.133 126.184 292.34 126.555 292.605 126.867C292.879 127.18 293.207 127.422 293.59 127.594C293.98 127.766 294.422 127.852 294.914 127.852C295.523 127.852 296.09 127.734 296.613 127.5C297.145 127.258 297.602 126.895 297.984 126.41L299.625 128.191C299.359 128.574 298.996 128.941 298.535 129.293C298.082 129.645 297.535 129.934 296.895 130.16C296.254 130.379 295.523 130.488 294.703 130.488ZM308.484 121.605V124.254H301.863V121.605H308.484ZM318.141 127.395V121.746C318.141 121.34 318.074 120.992 317.941 120.703C317.809 120.406 317.602 120.176 317.32 120.012C317.047 119.848 316.691 119.766 316.254 119.766C315.879 119.766 315.555 119.832 315.281 119.965C315.008 120.09 314.797 120.273 314.648 120.516C314.5 120.75 314.426 121.027 314.426 121.348H311.051C311.051 120.809 311.176 120.297 311.426 119.812C311.676 119.328 312.039 118.902 312.516 118.535C312.992 118.16 313.559 117.867 314.215 117.656C314.879 117.445 315.621 117.34 316.441 117.34C317.426 117.34 318.301 117.504 319.066 117.832C319.832 118.16 320.434 118.652 320.871 119.309C321.316 119.965 321.539 120.785 321.539 121.77V127.195C321.539 127.891 321.582 128.461 321.668 128.906C321.754 129.344 321.879 129.727 322.043 130.055V130.254H318.633C318.469 129.91 318.344 129.48 318.258 128.965C318.18 128.441 318.141 127.918 318.141 127.395ZM318.586 122.531L318.609 124.441H316.723C316.277 124.441 315.891 124.492 315.562 124.594C315.234 124.695 314.965 124.84 314.754 125.027C314.543 125.207 314.387 125.418 314.285 125.66C314.191 125.902 314.145 126.168 314.145 126.457C314.145 126.746 314.211 127.008 314.344 127.242C314.477 127.469 314.668 127.648 314.918 127.781C315.168 127.906 315.461 127.969 315.797 127.969C316.305 127.969 316.746 127.867 317.121 127.664C317.496 127.461 317.785 127.211 317.988 126.914C318.199 126.617 318.309 126.336 318.316 126.07L319.207 127.5C319.082 127.82 318.91 128.152 318.691 128.496C318.48 128.84 318.211 129.164 317.883 129.469C317.555 129.766 317.16 130.012 316.699 130.207C316.238 130.395 315.691 130.488 315.059 130.488C314.254 130.488 313.523 130.328 312.867 130.008C312.219 129.68 311.703 129.23 311.32 128.66C310.945 128.082 310.758 127.426 310.758 126.691C310.758 126.027 310.883 125.438 311.133 124.922C311.383 124.406 311.75 123.973 312.234 123.621C312.727 123.262 313.34 122.992 314.074 122.812C314.809 122.625 315.66 122.531 316.629 122.531H318.586ZM327.703 112.254V130.254H324.316V112.254H327.703ZM336.703 117.574V119.965H329.32V117.574H336.703ZM331.148 114.445H334.523V126.434C334.523 126.801 334.57 127.082 334.664 127.277C334.766 127.473 334.914 127.609 335.109 127.688C335.305 127.758 335.551 127.793 335.848 127.793C336.059 127.793 336.246 127.785 336.41 127.77C336.582 127.746 336.727 127.723 336.844 127.699L336.855 130.184C336.566 130.277 336.254 130.352 335.918 130.406C335.582 130.461 335.211 130.488 334.805 130.488C334.062 130.488 333.414 130.367 332.859 130.125C332.312 129.875 331.891 129.477 331.594 128.93C331.297 128.383 331.148 127.664 331.148 126.773V114.445Z" fill="#1E1E1E"/>
<rect x="145.5" y="156.254" width="152" height="52" rx="26" fill="#E9AFAF"/>
<path d="M170.273 184.043V183.797C170.273 182.867 170.406 182.012 170.672 181.23C170.938 180.441 171.324 179.758 171.832 179.18C172.34 178.602 172.965 178.152 173.707 177.832C174.449 177.504 175.301 177.34 176.262 177.34C177.223 177.34 178.078 177.504 178.828 177.832C179.578 178.152 180.207 178.602 180.715 179.18C181.23 179.758 181.621 180.441 181.887 181.23C182.152 182.012 182.285 182.867 182.285 183.797V184.043C182.285 184.965 182.152 185.82 181.887 186.609C181.621 187.391 181.23 188.074 180.715 188.66C180.207 189.238 179.582 189.688 178.84 190.008C178.098 190.328 177.246 190.488 176.285 190.488C175.324 190.488 174.469 190.328 173.719 190.008C172.977 189.688 172.348 189.238 171.832 188.66C171.324 188.074 170.938 187.391 170.672 186.609C170.406 185.82 170.273 184.965 170.273 184.043ZM173.648 183.797V184.043C173.648 184.574 173.695 185.07 173.789 185.531C173.883 185.992 174.031 186.398 174.234 186.75C174.445 187.094 174.719 187.363 175.055 187.559C175.391 187.754 175.801 187.852 176.285 187.852C176.754 187.852 177.156 187.754 177.492 187.559C177.828 187.363 178.098 187.094 178.301 186.75C178.504 186.398 178.652 185.992 178.746 185.531C178.848 185.07 178.898 184.574 178.898 184.043V183.797C178.898 183.281 178.848 182.797 178.746 182.344C178.652 181.883 178.5 181.477 178.289 181.125C178.086 180.766 177.816 180.484 177.48 180.281C177.145 180.078 176.738 179.977 176.262 179.977C175.785 179.977 175.379 180.078 175.043 180.281C174.715 180.484 174.445 180.766 174.234 181.125C174.031 181.477 173.883 181.883 173.789 182.344C173.695 182.797 173.648 183.281 173.648 183.797ZM184.359 172.254H187.734V187.348L187.395 190.254H184.359V172.254ZM195.762 183.785V184.031C195.762 184.977 195.66 185.844 195.457 186.633C195.262 187.422 194.957 188.105 194.543 188.684C194.129 189.254 193.613 189.699 192.996 190.02C192.387 190.332 191.668 190.488 190.84 190.488C190.066 190.488 189.395 190.332 188.824 190.02C188.262 189.707 187.789 189.266 187.406 188.695C187.023 188.125 186.715 187.457 186.48 186.691C186.246 185.926 186.07 185.09 185.953 184.184V183.645C186.07 182.738 186.246 181.902 186.48 181.137C186.715 180.371 187.023 179.703 187.406 179.133C187.789 178.562 188.262 178.121 188.824 177.809C189.387 177.496 190.051 177.34 190.816 177.34C191.652 177.34 192.379 177.5 192.996 177.82C193.621 178.133 194.137 178.578 194.543 179.156C194.957 179.727 195.262 180.406 195.457 181.195C195.66 181.977 195.762 182.84 195.762 183.785ZM192.387 184.031V183.785C192.387 183.27 192.348 182.785 192.27 182.332C192.199 181.871 192.074 181.469 191.895 181.125C191.715 180.773 191.469 180.496 191.156 180.293C190.852 180.09 190.457 179.988 189.973 179.988C189.512 179.988 189.121 180.066 188.801 180.223C188.48 180.379 188.215 180.598 188.004 180.879C187.801 181.16 187.648 181.496 187.547 181.887C187.445 182.27 187.383 182.691 187.359 183.152V184.688C187.383 185.305 187.484 185.852 187.664 186.328C187.852 186.797 188.133 187.168 188.508 187.441C188.891 187.707 189.387 187.84 189.996 187.84C190.473 187.84 190.867 187.746 191.18 187.559C191.492 187.371 191.734 187.105 191.906 186.762C192.086 186.418 192.211 186.016 192.281 185.555C192.352 185.086 192.387 184.578 192.387 184.031ZM198.047 177.574H201.434V191.016C201.434 191.953 201.262 192.746 200.918 193.395C200.574 194.043 200.078 194.535 199.43 194.871C198.781 195.207 197.996 195.375 197.074 195.375C196.785 195.375 196.504 195.359 196.23 195.328C195.949 195.297 195.66 195.246 195.363 195.176L195.375 192.586C195.562 192.617 195.746 192.641 195.926 192.656C196.098 192.68 196.273 192.691 196.453 192.691C196.805 192.691 197.098 192.633 197.332 192.516C197.566 192.398 197.742 192.215 197.859 191.965C197.984 191.723 198.047 191.406 198.047 191.016V177.574ZM197.777 174.27C197.777 173.777 197.949 173.371 198.293 173.051C198.645 172.73 199.105 172.57 199.676 172.57C200.254 172.57 200.715 172.73 201.059 173.051C201.402 173.371 201.574 173.777 201.574 174.27C201.574 174.762 201.402 175.168 201.059 175.488C200.715 175.809 200.254 175.969 199.676 175.969C199.105 175.969 198.645 175.809 198.293 175.488C197.949 175.168 197.777 174.762 197.777 174.27ZM209.953 190.488C208.969 190.488 208.086 190.332 207.305 190.02C206.523 189.699 205.859 189.258 205.312 188.695C204.773 188.133 204.359 187.48 204.07 186.738C203.781 185.988 203.637 185.191 203.637 184.348V183.879C203.637 182.918 203.773 182.039 204.047 181.242C204.32 180.445 204.711 179.754 205.219 179.168C205.734 178.582 206.359 178.133 207.094 177.82C207.828 177.5 208.656 177.34 209.578 177.34C210.477 177.34 211.273 177.488 211.969 177.785C212.664 178.082 213.246 178.504 213.715 179.051C214.191 179.598 214.551 180.254 214.793 181.02C215.035 181.777 215.156 182.621 215.156 183.551V184.957H205.078V182.707H211.84V182.449C211.84 181.98 211.754 181.562 211.582 181.195C211.418 180.82 211.168 180.523 210.832 180.305C210.496 180.086 210.066 179.977 209.543 179.977C209.098 179.977 208.715 180.074 208.395 180.27C208.074 180.465 207.812 180.738 207.609 181.09C207.414 181.441 207.266 181.855 207.164 182.332C207.07 182.801 207.023 183.316 207.023 183.879V184.348C207.023 184.855 207.094 185.324 207.234 185.754C207.383 186.184 207.59 186.555 207.855 186.867C208.129 187.18 208.457 187.422 208.84 187.594C209.23 187.766 209.672 187.852 210.164 187.852C210.773 187.852 211.34 187.734 211.863 187.5C212.395 187.258 212.852 186.895 213.234 186.41L214.875 188.191C214.609 188.574 214.246 188.941 213.785 189.293C213.332 189.645 212.785 189.934 212.145 190.16C211.504 190.379 210.773 190.488 209.953 190.488ZM222.316 187.852C222.73 187.852 223.098 187.773 223.418 187.617C223.738 187.453 223.988 187.227 224.168 186.938C224.355 186.641 224.453 186.293 224.461 185.895H227.637C227.629 186.785 227.391 187.578 226.922 188.273C226.453 188.961 225.824 189.504 225.035 189.902C224.246 190.293 223.363 190.488 222.387 190.488C221.402 190.488 220.543 190.324 219.809 189.996C219.082 189.668 218.477 189.215 217.992 188.637C217.508 188.051 217.145 187.371 216.902 186.598C216.66 185.816 216.539 184.98 216.539 184.09V183.75C216.539 182.852 216.66 182.016 216.902 181.242C217.145 180.461 217.508 179.781 217.992 179.203C218.477 178.617 219.082 178.16 219.809 177.832C220.535 177.504 221.387 177.34 222.363 177.34C223.402 177.34 224.312 177.539 225.094 177.938C225.883 178.336 226.5 178.906 226.945 179.648C227.398 180.383 227.629 181.254 227.637 182.262H224.461C224.453 181.84 224.363 181.457 224.191 181.113C224.027 180.77 223.785 180.496 223.465 180.293C223.152 180.082 222.766 179.977 222.305 179.977C221.812 179.977 221.41 180.082 221.098 180.293C220.785 180.496 220.543 180.777 220.371 181.137C220.199 181.488 220.078 181.891 220.008 182.344C219.945 182.789 219.914 183.258 219.914 183.75V184.09C219.914 184.582 219.945 185.055 220.008 185.508C220.07 185.961 220.188 186.363 220.359 186.715C220.539 187.066 220.785 187.344 221.098 187.547C221.41 187.75 221.816 187.852 222.316 187.852ZM235.805 177.574V179.965H228.422V177.574H235.805ZM230.25 174.445H233.625V186.434C233.625 186.801 233.672 187.082 233.766 187.277C233.867 187.473 234.016 187.609 234.211 187.688C234.406 187.758 234.652 187.793 234.949 187.793C235.16 187.793 235.348 187.785 235.512 187.77C235.684 187.746 235.828 187.723 235.945 187.699L235.957 190.184C235.668 190.277 235.355 190.352 235.02 190.406C234.684 190.461 234.312 190.488 233.906 190.488C233.164 190.488 232.516 190.367 231.961 190.125C231.414 189.875 230.992 189.477 230.695 188.93C230.398 188.383 230.25 187.664 230.25 186.773V174.445ZM244.383 181.605V184.254H237.762V181.605H244.383ZM254.039 187.395V181.746C254.039 181.34 253.973 180.992 253.84 180.703C253.707 180.406 253.5 180.176 253.219 180.012C252.945 179.848 252.59 179.766 252.152 179.766C251.777 179.766 251.453 179.832 251.18 179.965C250.906 180.09 250.695 180.273 250.547 180.516C250.398 180.75 250.324 181.027 250.324 181.348H246.949C246.949 180.809 247.074 180.297 247.324 179.812C247.574 179.328 247.938 178.902 248.414 178.535C248.891 178.16 249.457 177.867 250.113 177.656C250.777 177.445 251.52 177.34 252.34 177.34C253.324 177.34 254.199 177.504 254.965 177.832C255.73 178.16 256.332 178.652 256.77 179.309C257.215 179.965 257.438 180.785 257.438 181.77V187.195C257.438 187.891 257.48 188.461 257.566 188.906C257.652 189.344 257.777 189.727 257.941 190.055V190.254H254.531C254.367 189.91 254.242 189.48 254.156 188.965C254.078 188.441 254.039 187.918 254.039 187.395ZM254.484 182.531L254.508 184.441H252.621C252.176 184.441 251.789 184.492 251.461 184.594C251.133 184.695 250.863 184.84 250.652 185.027C250.441 185.207 250.285 185.418 250.184 185.66C250.09 185.902 250.043 186.168 250.043 186.457C250.043 186.746 250.109 187.008 250.242 187.242C250.375 187.469 250.566 187.648 250.816 187.781C251.066 187.906 251.359 187.969 251.695 187.969C252.203 187.969 252.645 187.867 253.02 187.664C253.395 187.461 253.684 187.211 253.887 186.914C254.098 186.617 254.207 186.336 254.215 186.07L255.105 187.5C254.98 187.82 254.809 188.152 254.59 188.496C254.379 188.84 254.109 189.164 253.781 189.469C253.453 189.766 253.059 190.012 252.598 190.207C252.137 190.395 251.59 190.488 250.957 190.488C250.152 190.488 249.422 190.328 248.766 190.008C248.117 189.68 247.602 189.23 247.219 188.66C246.844 188.082 246.656 187.426 246.656 186.691C246.656 186.027 246.781 185.438 247.031 184.922C247.281 184.406 247.648 183.973 248.133 183.621C248.625 183.262 249.238 182.992 249.973 182.812C250.707 182.625 251.559 182.531 252.527 182.531H254.484ZM263.602 172.254V190.254H260.215V172.254H263.602ZM272.602 177.574V179.965H265.219V177.574H272.602ZM267.047 174.445H270.422V186.434C270.422 186.801 270.469 187.082 270.562 187.277C270.664 187.473 270.812 187.609 271.008 187.688C271.203 187.758 271.449 187.793 271.746 187.793C271.957 187.793 272.145 187.785 272.309 187.77C272.48 187.746 272.625 187.723 272.742 187.699L272.754 190.184C272.465 190.277 272.152 190.352 271.816 190.406C271.48 190.461 271.109 190.488 270.703 190.488C269.961 190.488 269.312 190.367 268.758 190.125C268.211 189.875 267.789 189.477 267.492 188.93C267.195 188.383 267.047 187.664 267.047 186.773V174.445Z" fill="#1E1E1E"/>
<rect x="145.5" y="216.254" width="188" height="52" rx="26" fill="#E9AFAF"/>
<path d="M170.812 232.254H174.188V247.348L173.848 250.254H170.812V232.254ZM182.215 243.785V244.031C182.215 244.977 182.113 245.844 181.91 246.633C181.715 247.422 181.41 248.105 180.996 248.684C180.582 249.254 180.066 249.699 179.449 250.02C178.84 250.332 178.121 250.488 177.293 250.488C176.52 250.488 175.848 250.332 175.277 250.02C174.715 249.707 174.242 249.266 173.859 248.695C173.477 248.125 173.168 247.457 172.934 246.691C172.699 245.926 172.523 245.09 172.406 244.184V243.645C172.523 242.738 172.699 241.902 172.934 241.137C173.168 240.371 173.477 239.703 173.859 239.133C174.242 238.562 174.715 238.121 175.277 237.809C175.84 237.496 176.504 237.34 177.27 237.34C178.105 237.34 178.832 237.5 179.449 237.82C180.074 238.133 180.59 238.578 180.996 239.156C181.41 239.727 181.715 240.406 181.91 241.195C182.113 241.977 182.215 242.84 182.215 243.785ZM178.84 244.031V243.785C178.84 243.27 178.801 242.785 178.723 242.332C178.652 241.871 178.527 241.469 178.348 241.125C178.168 240.773 177.922 240.496 177.609 240.293C177.305 240.09 176.91 239.988 176.426 239.988C175.965 239.988 175.574 240.066 175.254 240.223C174.934 240.379 174.668 240.598 174.457 240.879C174.254 241.16 174.102 241.496 174 241.887C173.898 242.27 173.836 242.691 173.812 243.152V244.688C173.836 245.305 173.938 245.852 174.117 246.328C174.305 246.797 174.586 247.168 174.961 247.441C175.344 247.707 175.84 247.84 176.449 247.84C176.926 247.84 177.32 247.746 177.633 247.559C177.945 247.371 178.188 247.105 178.359 246.762C178.539 246.418 178.664 246.016 178.734 245.555C178.805 245.086 178.84 244.578 178.84 244.031ZM191.812 247.219V237.574H195.188V250.254H192.012L191.812 247.219ZM192.188 244.617L193.184 244.594C193.184 245.438 193.086 246.223 192.891 246.949C192.695 247.668 192.402 248.293 192.012 248.824C191.621 249.348 191.129 249.758 190.535 250.055C189.941 250.344 189.242 250.488 188.438 250.488C187.82 250.488 187.25 250.402 186.727 250.23C186.211 250.051 185.766 249.773 185.391 249.398C185.023 249.016 184.734 248.527 184.523 247.934C184.32 247.332 184.219 246.609 184.219 245.766V237.574H187.594V245.789C187.594 246.164 187.637 246.48 187.723 246.738C187.816 246.996 187.945 247.207 188.109 247.371C188.273 247.535 188.465 247.652 188.684 247.723C188.91 247.793 189.16 247.828 189.434 247.828C190.129 247.828 190.676 247.688 191.074 247.406C191.48 247.125 191.766 246.742 191.93 246.258C192.102 245.766 192.188 245.219 192.188 244.617ZM203.977 237.574V239.965H196.594V237.574H203.977ZM198.422 234.445H201.797V246.434C201.797 246.801 201.844 247.082 201.938 247.277C202.039 247.473 202.188 247.609 202.383 247.688C202.578 247.758 202.824 247.793 203.121 247.793C203.332 247.793 203.52 247.785 203.684 247.77C203.855 247.746 204 247.723 204.117 247.699L204.129 250.184C203.84 250.277 203.527 250.352 203.191 250.406C202.855 250.461 202.484 250.488 202.078 250.488C201.336 250.488 200.688 250.367 200.133 250.125C199.586 249.875 199.164 249.477 198.867 248.93C198.57 248.383 198.422 247.664 198.422 246.773V234.445ZM212.109 237.574V239.965H204.727V237.574H212.109ZM206.555 234.445H209.93V246.434C209.93 246.801 209.977 247.082 210.07 247.277C210.172 247.473 210.32 247.609 210.516 247.688C210.711 247.758 210.957 247.793 211.254 247.793C211.465 247.793 211.652 247.785 211.816 247.77C211.988 247.746 212.133 247.723 212.25 247.699L212.262 250.184C211.973 250.277 211.66 250.352 211.324 250.406C210.988 250.461 210.617 250.488 210.211 250.488C209.469 250.488 208.82 250.367 208.266 250.125C207.719 249.875 207.297 249.477 207 248.93C206.703 248.383 206.555 247.664 206.555 246.773V234.445ZM213.188 244.043V243.797C213.188 242.867 213.32 242.012 213.586 241.23C213.852 240.441 214.238 239.758 214.746 239.18C215.254 238.602 215.879 238.152 216.621 237.832C217.363 237.504 218.215 237.34 219.176 237.34C220.137 237.34 220.992 237.504 221.742 237.832C222.492 238.152 223.121 238.602 223.629 239.18C224.145 239.758 224.535 240.441 224.801 241.23C225.066 242.012 225.199 242.867 225.199 243.797V244.043C225.199 244.965 225.066 245.82 224.801 246.609C224.535 247.391 224.145 248.074 223.629 248.66C223.121 249.238 222.496 249.688 221.754 250.008C221.012 250.328 220.16 250.488 219.199 250.488C218.238 250.488 217.383 250.328 216.633 250.008C215.891 249.688 215.262 249.238 214.746 248.66C214.238 248.074 213.852 247.391 213.586 246.609C213.32 245.82 213.188 244.965 213.188 244.043ZM216.562 243.797V244.043C216.562 244.574 216.609 245.07 216.703 245.531C216.797 245.992 216.945 246.398 217.148 246.75C217.359 247.094 217.633 247.363 217.969 247.559C218.305 247.754 218.715 247.852 219.199 247.852C219.668 247.852 220.07 247.754 220.406 247.559C220.742 247.363 221.012 247.094 221.215 246.75C221.418 246.398 221.566 245.992 221.66 245.531C221.762 245.07 221.812 244.574 221.812 244.043V243.797C221.812 243.281 221.762 242.797 221.66 242.344C221.566 241.883 221.414 241.477 221.203 241.125C221 240.766 220.73 240.484 220.395 240.281C220.059 240.078 219.652 239.977 219.176 239.977C218.699 239.977 218.293 240.078 217.957 240.281C217.629 240.484 217.359 240.766 217.148 241.125C216.945 241.477 216.797 241.883 216.703 242.344C216.609 242.797 216.562 243.281 216.562 243.797ZM230.578 240.281V250.254H227.203V237.574H230.367L230.578 240.281ZM230.086 243.469H229.172C229.172 242.531 229.293 241.688 229.535 240.938C229.777 240.18 230.117 239.535 230.555 239.004C230.992 238.465 231.512 238.055 232.113 237.773C232.723 237.484 233.402 237.34 234.152 237.34C234.746 237.34 235.289 237.426 235.781 237.598C236.273 237.77 236.695 238.043 237.047 238.418C237.406 238.793 237.68 239.289 237.867 239.906C238.062 240.523 238.16 241.277 238.16 242.168V250.254H234.762V242.156C234.762 241.594 234.684 241.156 234.527 240.844C234.371 240.531 234.141 240.312 233.836 240.188C233.539 240.055 233.172 239.988 232.734 239.988C232.281 239.988 231.887 240.078 231.551 240.258C231.223 240.438 230.949 240.688 230.73 241.008C230.52 241.32 230.359 241.688 230.25 242.109C230.141 242.531 230.086 242.984 230.086 243.469ZM247.383 241.605V244.254H240.762V241.605H247.383ZM253.5 240.281V250.254H250.125V237.574H253.289L253.5 240.281ZM253.008 243.469H252.094C252.094 242.531 252.215 241.688 252.457 240.938C252.699 240.18 253.039 239.535 253.477 239.004C253.914 238.465 254.434 238.055 255.035 237.773C255.645 237.484 256.324 237.34 257.074 237.34C257.668 237.34 258.211 237.426 258.703 237.598C259.195 237.77 259.617 238.043 259.969 238.418C260.328 238.793 260.602 239.289 260.789 239.906C260.984 240.523 261.082 241.277 261.082 242.168V250.254H257.684V242.156C257.684 241.594 257.605 241.156 257.449 240.844C257.293 240.531 257.062 240.312 256.758 240.188C256.461 240.055 256.094 239.988 255.656 239.988C255.203 239.988 254.809 240.078 254.473 240.258C254.145 240.438 253.871 240.688 253.652 241.008C253.441 241.32 253.281 241.688 253.172 242.109C253.062 242.531 253.008 242.984 253.008 243.469ZM270.492 247.395V241.746C270.492 241.34 270.426 240.992 270.293 240.703C270.16 240.406 269.953 240.176 269.672 240.012C269.398 239.848 269.043 239.766 268.605 239.766C268.23 239.766 267.906 239.832 267.633 239.965C267.359 240.09 267.148 240.273 267 240.516C266.852 240.75 266.777 241.027 266.777 241.348H263.402C263.402 240.809 263.527 240.297 263.777 239.812C264.027 239.328 264.391 238.902 264.867 238.535C265.344 238.16 265.91 237.867 266.566 237.656C267.23 237.445 267.973 237.34 268.793 237.34C269.777 237.34 270.652 237.504 271.418 237.832C272.184 238.16 272.785 238.652 273.223 239.309C273.668 239.965 273.891 240.785 273.891 241.77V247.195C273.891 247.891 273.934 248.461 274.02 248.906C274.105 249.344 274.23 249.727 274.395 250.055V250.254H270.984C270.82 249.91 270.695 249.48 270.609 248.965C270.531 248.441 270.492 247.918 270.492 247.395ZM270.938 242.531L270.961 244.441H269.074C268.629 244.441 268.242 244.492 267.914 244.594C267.586 244.695 267.316 244.84 267.105 245.027C266.895 245.207 266.738 245.418 266.637 245.66C266.543 245.902 266.496 246.168 266.496 246.457C266.496 246.746 266.562 247.008 266.695 247.242C266.828 247.469 267.02 247.648 267.27 247.781C267.52 247.906 267.812 247.969 268.148 247.969C268.656 247.969 269.098 247.867 269.473 247.664C269.848 247.461 270.137 247.211 270.34 246.914C270.551 246.617 270.66 246.336 270.668 246.07L271.559 247.5C271.434 247.82 271.262 248.152 271.043 248.496C270.832 248.84 270.562 249.164 270.234 249.469C269.906 249.766 269.512 250.012 269.051 250.207C268.59 250.395 268.043 250.488 267.41 250.488C266.605 250.488 265.875 250.328 265.219 250.008C264.57 249.68 264.055 249.23 263.672 248.66C263.297 248.082 263.109 247.426 263.109 246.691C263.109 246.027 263.234 245.438 263.484 244.922C263.734 244.406 264.102 243.973 264.586 243.621C265.078 243.262 265.691 242.992 266.426 242.812C267.16 242.625 268.012 242.531 268.98 242.531H270.938ZM279.867 240.199V250.254H276.48V237.574H279.656L279.867 240.199ZM279.398 243.469H278.461C278.461 242.586 278.566 241.773 278.777 241.031C278.996 240.281 279.312 239.633 279.727 239.086C280.148 238.531 280.668 238.102 281.285 237.797C281.902 237.492 282.617 237.34 283.43 237.34C283.992 237.34 284.508 237.426 284.977 237.598C285.445 237.762 285.848 238.023 286.184 238.383C286.527 238.734 286.793 239.195 286.98 239.766C287.168 240.328 287.262 241.004 287.262 241.793V250.254H283.887V242.168C283.887 241.59 283.809 241.145 283.652 240.832C283.496 240.52 283.273 240.301 282.984 240.176C282.703 240.051 282.363 239.988 281.965 239.988C281.527 239.988 281.145 240.078 280.816 240.258C280.496 240.438 280.23 240.688 280.02 241.008C279.809 241.32 279.652 241.688 279.551 242.109C279.449 242.531 279.398 242.984 279.398 243.469ZM286.945 243.082L285.738 243.234C285.738 242.406 285.84 241.637 286.043 240.926C286.254 240.215 286.562 239.59 286.969 239.051C287.383 238.512 287.895 238.094 288.504 237.797C289.113 237.492 289.816 237.34 290.613 237.34C291.223 237.34 291.777 237.43 292.277 237.609C292.777 237.781 293.203 238.059 293.555 238.441C293.914 238.816 294.188 239.309 294.375 239.918C294.57 240.527 294.668 241.273 294.668 242.156V250.254H291.281V242.156C291.281 241.57 291.203 241.125 291.047 240.82C290.898 240.508 290.68 240.293 290.391 240.176C290.109 240.051 289.773 239.988 289.383 239.988C288.977 239.988 288.621 240.07 288.316 240.234C288.012 240.391 287.758 240.609 287.555 240.891C287.352 241.172 287.199 241.5 287.098 241.875C286.996 242.242 286.945 242.645 286.945 243.082ZM303.117 250.488C302.133 250.488 301.25 250.332 300.469 250.02C299.688 249.699 299.023 249.258 298.477 248.695C297.938 248.133 297.523 247.48 297.234 246.738C296.945 245.988 296.801 245.191 296.801 244.348V243.879C296.801 242.918 296.938 242.039 297.211 241.242C297.484 240.445 297.875 239.754 298.383 239.168C298.898 238.582 299.523 238.133 300.258 237.82C300.992 237.5 301.82 237.34 302.742 237.34C303.641 237.34 304.438 237.488 305.133 237.785C305.828 238.082 306.41 238.504 306.879 239.051C307.355 239.598 307.715 240.254 307.957 241.02C308.199 241.777 308.32 242.621 308.32 243.551V244.957H298.242V242.707H305.004V242.449C305.004 241.98 304.918 241.562 304.746 241.195C304.582 240.82 304.332 240.523 303.996 240.305C303.66 240.086 303.23 239.977 302.707 239.977C302.262 239.977 301.879 240.074 301.559 240.27C301.238 240.465 300.977 240.738 300.773 241.09C300.578 241.441 300.43 241.855 300.328 242.332C300.234 242.801 300.188 243.316 300.188 243.879V244.348C300.188 244.855 300.258 245.324 300.398 245.754C300.547 246.184 300.754 246.555 301.02 246.867C301.293 247.18 301.621 247.422 302.004 247.594C302.395 247.766 302.836 247.852 303.328 247.852C303.938 247.852 304.504 247.734 305.027 247.5C305.559 247.258 306.016 246.895 306.398 246.41L308.039 248.191C307.773 248.574 307.41 248.941 306.949 249.293C306.496 249.645 305.949 249.934 305.309 250.16C304.668 250.379 303.938 250.488 303.117 250.488Z" fill="#1E1E1E"/>
<path d="M419.602 154.047L407.708 149.798V144.807L423.869 151.598V155.179L419.602 154.047ZM407.708 157.609L419.62 153.268L423.869 152.247V155.81L407.708 162.601V157.609ZM439.232 154.047L427.339 149.798V144.807L443.5 151.598V155.179L439.232 154.047ZM427.339 157.609L439.251 153.268L443.5 152.247V155.81L427.339 162.601V157.609Z" fill="#1E1E1E"/>
<rect x="481.5" y="126.254" width="237" height="52" rx="26" fill="white"/>
<path d="M518.484 145.278V147.87H522.708V145.278H518.484ZM521.868 140.166V153.006H525.06V140.166H521.868ZM510.252 153.918V162.15H525.06V153.918H510.252ZM521.94 156.414V159.63H513.396V156.414H521.94ZM511.596 142.23V143.622C511.596 146.43 510.012 149.334 506.34 150.534L507.948 153.054C512.22 151.662 514.188 147.822 514.188 143.622V142.23H511.596ZM512.268 142.23V143.622C512.268 147.582 514.164 151.278 518.292 152.646L519.852 150.126C516.348 148.95 514.836 146.214 514.836 143.622V142.23H512.268ZM507.204 141.294V143.814H519.156V141.294H507.204ZM536.914 140.814V141.846C536.914 144.462 534.394 147.366 529.282 148.038L530.53 150.606C536.362 149.742 539.722 146.118 539.722 141.846V140.814H536.914ZM537.514 140.814V141.846C537.514 146.118 540.874 149.742 546.706 150.606L547.93 148.038C542.842 147.366 540.298 144.438 540.298 141.846V140.814H537.514ZM536.938 154.254V162.39H540.106V154.254H536.938ZM528.562 152.238V154.83H548.65V152.238H528.562ZM565.017 148.134V152.118H568.185V148.134H565.017ZM556.593 150.798V153.318H576.681V150.798H556.593ZM566.601 154.542C561.777 154.542 558.873 155.958 558.873 158.478C558.873 160.998 561.777 162.39 566.601 162.39C571.425 162.39 574.305 160.998 574.305 158.478C574.305 155.958 571.425 154.542 566.601 154.542ZM566.601 156.942C569.601 156.942 571.089 157.422 571.089 158.478C571.089 159.558 569.601 160.014 566.601 160.014C563.601 160.014 562.113 159.558 562.113 158.478C562.113 157.422 563.601 156.942 566.601 156.942ZM564.441 142.254V142.806C564.441 144.534 562.305 146.478 557.433 146.886L558.537 149.406C564.273 148.854 567.273 146.142 567.273 142.806V142.254H564.441ZM566.001 142.254V142.806C566.001 146.166 569.025 148.854 574.737 149.406L575.841 146.886C570.945 146.478 568.833 144.534 568.833 142.806V142.254H566.001ZM558.417 141.078V143.598H574.881V141.078H558.417ZM592.975 140.166V153.174H596.167V140.166H592.975ZM594.895 145.494V148.134H599.119V145.494H594.895ZM581.719 154.038V162.15H596.167V154.038H592.999V155.718H584.863V154.038H581.719ZM584.863 158.118H592.999V159.654H584.863V158.118ZM578.671 142.086V144.606H591.751V142.086H578.671ZM585.223 145.206C581.983 145.206 579.751 146.79 579.751 149.142C579.751 151.494 581.983 153.078 585.223 153.078C588.439 153.078 590.671 151.494 590.671 149.142C590.671 146.79 588.439 145.206 585.223 145.206ZM585.223 147.534C586.639 147.534 587.623 148.11 587.623 149.142C587.623 150.198 586.639 150.75 585.223 150.75C583.783 150.75 582.823 150.198 582.823 149.142C582.823 148.11 583.783 147.534 585.223 147.534ZM583.615 139.998V143.502H586.807V139.998H583.615ZM621.03 140.166V151.254H624.222V140.166H621.03ZM622.926 144.414V147.03H627.15V144.414H622.926ZM609.534 152.142V154.59H621.078V155.934H609.582V160.878H612.75V158.238H624.222V152.142H609.534ZM609.582 159.654V162.15H624.87V159.654H609.582ZM612.798 140.814C609.414 140.814 606.87 142.902 606.87 145.854C606.87 148.782 609.414 150.894 612.798 150.894C616.206 150.894 618.726 148.782 618.726 145.854C618.726 142.902 616.206 140.814 612.798 140.814ZM612.798 143.382C614.454 143.382 615.654 144.294 615.654 145.854C615.654 147.414 614.454 148.35 612.798 148.35C611.166 148.35 609.966 147.414 609.966 145.854C609.966 144.294 611.166 143.382 612.798 143.382ZM630.868 142.038V144.606H644.956V142.038H630.868ZM628.828 157.134V159.726H648.916V157.134H628.828ZM635.932 149.502V158.406H639.124V149.502H635.932ZM643.804 142.038V144.174C643.804 146.838 643.804 150.054 642.916 154.47L646.108 154.83C646.996 150.078 646.996 146.958 646.996 144.174V142.038H643.804ZM666.194 140.142V162.438H669.386V140.142H666.194ZM652.082 154.662V157.254H654.05C658.106 157.254 661.37 157.134 664.97 156.486L664.658 153.918C661.13 154.518 657.986 154.662 654.05 154.662H652.082ZM652.058 142.038V144.582H659.282V148.11H652.082V155.622H655.322V150.63H662.546V142.038H652.058ZM680.808 142.302V142.854C680.808 144.582 678.672 146.526 673.8 146.958L674.904 149.454C680.64 148.926 683.64 146.19 683.64 142.854V142.302H680.808ZM682.368 142.302V142.854C682.368 146.19 685.392 148.926 691.104 149.454L692.208 146.958C687.312 146.526 685.2 144.582 685.2 142.854V142.302H682.368ZM674.784 141.03V143.55H691.248V141.03H674.784ZM675.288 154.398V162.15H690.648V154.398H675.288ZM687.528 156.918V159.63H678.432V156.918H687.528ZM672.96 150.246V152.766H693.048V150.246H672.96Z" fill="#1E1E1E"/>
<path d="M768.602 154.047L756.708 149.798V144.807L772.869 151.598V155.179L768.602 154.047ZM756.708 157.609L768.62 153.268L772.869 152.247V155.81L756.708 162.601V157.609ZM788.232 154.047L776.339 149.798V144.807L792.5 151.598V155.179L788.232 154.047ZM776.339 157.609L788.251 153.268L792.5 152.247V155.81L776.339 162.601V157.609Z" fill="#1E1E1E"/>
<rect width="352" height="68" transform="translate(830.5 118.254)" fill="white"/>
<rect x="838.5" y="126.254" width="336" height="52" rx="26" fill="#E9AFAF"/>
<path d="M868.596 142.374V143.79C868.596 146.574 867.012 149.502 863.34 150.702L864.948 153.222C869.22 151.83 871.188 147.966 871.188 143.79V142.374H868.596ZM869.268 142.374V143.79C869.268 147.726 871.164 151.422 875.292 152.79L876.852 150.294C873.348 149.118 871.836 146.382 871.836 143.79V142.374H869.268ZM875.556 145.47V148.062H879.78V145.47H875.556ZM864.204 141.39V143.91H876.156V141.39H864.204ZM866.916 154.398V156.942H878.868V162.39H882.06V154.398H866.916ZM878.868 140.166V153.39H882.06V140.166H878.868ZM897.562 144.702V147.222H903.058V144.702H897.562ZM890.578 142.038V143.262C890.578 145.638 888.922 148.326 885.346 149.478L886.858 151.95C891.106 150.702 893.17 147.006 893.17 143.262V142.038H890.578ZM891.226 142.038V143.262C891.226 146.958 893.17 150.294 897.322 151.494L898.786 148.998C895.33 147.99 893.818 145.59 893.818 143.262V142.038H891.226ZM886.186 140.982V143.526H898.138V140.982H886.186ZM900.946 140.166V151.446H904.138V140.166H900.946ZM889.45 152.334V154.806H900.97V156.054H889.474V161.142H892.642V158.358H904.138V152.334H889.45ZM889.474 159.702V162.174H904.762V159.702H889.474ZM921.92 140.19V156.798H925.112V140.19H921.92ZM924.2 146.958V149.574H928.064V146.958H924.2ZM907.616 142.494V144.99H920.696V142.494H907.616ZM914.168 145.782C910.952 145.782 908.696 147.534 908.696 150.078C908.696 152.622 910.952 154.35 914.168 154.35C917.36 154.35 919.616 152.622 919.616 150.078C919.616 147.534 917.36 145.782 914.168 145.782ZM914.168 148.206C915.584 148.206 916.568 148.878 916.568 150.078C916.568 151.278 915.584 151.926 914.168 151.926C912.752 151.926 911.768 151.278 911.768 150.078C911.768 148.878 912.752 148.206 914.168 148.206ZM912.56 140.142V143.718H915.752V140.142H912.56ZM910.784 159.462V162.006H925.904V159.462H910.784ZM910.784 155.55V160.566H913.976V155.55H910.784ZM951.727 140.166V162.39H954.751V140.166H951.727ZM948.751 148.71V151.278H952.447V148.71H948.751ZM946.759 140.55V161.334H949.711V140.55H946.759ZM936.295 154.758V157.374H937.855C940.711 157.374 943.063 157.302 945.751 156.774L945.511 154.182C942.871 154.662 940.591 154.758 937.855 154.758H936.295ZM936.295 142.734V156.006H939.463V145.302H944.503V142.734H936.295ZM966.797 148.59V151.158H970.325V148.59H966.797ZM961.637 146.334V146.91C961.637 150.318 960.509 153.966 957.341 155.814L959.141 158.214C962.693 156.174 964.037 151.542 964.037 146.91V146.334H961.637ZM962.261 146.334V146.91C962.261 151.47 963.629 155.814 967.229 157.686L968.957 155.334C965.813 153.654 964.661 150.27 964.661 146.91V146.334H962.261ZM958.181 143.886V146.454H968.093V143.886H958.181ZM961.637 140.91V145.974H964.661V140.91H961.637ZM973.805 140.166V162.39H976.829V140.166H973.805ZM969.317 140.526V161.382H972.293V140.526H969.317ZM995.188 145.806V148.35H998.572V145.806H995.188ZM986.668 150.582V153.078H988.18C991.468 153.078 993.58 153.03 996.1 152.598L995.812 150.102C993.388 150.51 991.348 150.582 988.18 150.582H986.668ZM986.668 141.63V151.686H989.74V144.15H995.044V141.63H986.668ZM988.828 146.118V148.518H994.228V146.118H988.828ZM989.452 154.926V157.446H1001.57V162.39H1004.74V154.926H989.452ZM1001.72 140.166V154.038H1004.74V140.166H1001.72ZM997.372 140.598V153.894H1000.35V140.598H997.372ZM1016.14 141.438V143.046C1016.14 146.238 1013.38 149.766 1008.36 150.63L1009.73 153.27C1015.49 152.142 1018.92 147.87 1018.92 143.046V141.438H1016.14ZM1016.79 141.438V143.046C1016.79 147.942 1020.19 152.142 1025.95 153.27L1027.32 150.63C1022.28 149.766 1019.55 146.31 1019.55 143.046V141.438H1016.79ZM1007.91 157.086V159.678H1028.02V157.086H1007.91ZM1032.34 151.614V154.11H1047.96V151.614H1032.34ZM1029.98 157.254V159.846H1050.1V157.254H1029.98ZM1032.34 141.774V152.31H1035.58V144.342H1047.77V141.774H1032.34ZM1034.59 146.67V149.142H1047.26V146.67H1034.59ZM1070.04 145.278V147.87H1074.26V145.278H1070.04ZM1073.42 140.166V153.006H1076.61V140.166H1073.42ZM1061.81 153.918V162.15H1076.61V153.918H1061.81ZM1073.49 156.414V159.63H1064.95V156.414H1073.49ZM1063.15 142.23V143.622C1063.15 146.43 1061.57 149.334 1057.89 150.534L1059.5 153.054C1063.77 151.662 1065.74 147.822 1065.74 143.622V142.23H1063.15ZM1063.82 142.23V143.622C1063.82 147.582 1065.72 151.278 1069.85 152.646L1071.41 150.126C1067.9 148.95 1066.39 146.214 1066.39 143.622V142.23H1063.82ZM1058.76 141.294V143.814H1070.71V141.294H1058.76ZM1088.47 140.814V141.846C1088.47 144.462 1085.95 147.366 1080.84 148.038L1082.08 150.606C1087.92 149.742 1091.28 146.118 1091.28 141.846V140.814H1088.47ZM1089.07 140.814V141.846C1089.07 146.118 1092.43 149.742 1098.26 150.606L1099.48 148.038C1094.4 147.366 1091.85 144.438 1091.85 141.846V140.814H1089.07ZM1088.49 154.254V162.39H1091.66V154.254H1088.49ZM1080.12 152.238V154.83H1100.2V152.238H1080.12ZM1115.79 143.191L1109.53 161.719H1107.02L1113.28 143.191H1115.79ZM1131.47 143.156V160.254H1128.09V147.047L1124.04 148.336V145.676L1131.11 143.156H1131.47ZM1148.51 150.223V153.176C1148.51 154.457 1148.37 155.562 1148.1 156.492C1147.82 157.414 1147.43 158.172 1146.91 158.766C1146.41 159.352 1145.8 159.785 1145.1 160.066C1144.39 160.348 1143.61 160.488 1142.75 160.488C1142.07 160.488 1141.43 160.402 1140.83 160.23C1140.24 160.051 1139.7 159.773 1139.23 159.398C1138.76 159.023 1138.35 158.551 1138.01 157.98C1137.67 157.402 1137.41 156.715 1137.23 155.918C1137.05 155.121 1136.96 154.207 1136.96 153.176V150.223C1136.96 148.941 1137.1 147.844 1137.38 146.93C1137.66 146.008 1138.05 145.254 1138.56 144.668C1139.07 144.082 1139.68 143.652 1140.39 143.379C1141.09 143.098 1141.87 142.957 1142.73 142.957C1143.42 142.957 1144.05 143.047 1144.64 143.227C1145.23 143.398 1145.77 143.668 1146.25 144.035C1146.72 144.402 1147.13 144.875 1147.46 145.453C1147.8 146.023 1148.06 146.707 1148.24 147.504C1148.42 148.293 1148.51 149.199 1148.51 150.223ZM1145.12 153.621V149.766C1145.12 149.148 1145.09 148.609 1145.02 148.148C1144.95 147.688 1144.86 147.297 1144.72 146.977C1144.59 146.648 1144.43 146.383 1144.23 146.18C1144.04 145.977 1143.81 145.828 1143.56 145.734C1143.31 145.641 1143.04 145.594 1142.73 145.594C1142.35 145.594 1142.01 145.668 1141.71 145.816C1141.42 145.965 1141.18 146.203 1140.97 146.531C1140.77 146.852 1140.61 147.281 1140.5 147.82C1140.4 148.352 1140.35 149 1140.35 149.766V153.621C1140.35 154.238 1140.38 154.781 1140.45 155.25C1140.52 155.719 1140.62 156.121 1140.75 156.457C1140.89 156.785 1141.05 157.055 1141.24 157.266C1141.44 157.469 1141.66 157.617 1141.91 157.711C1142.17 157.805 1142.45 157.852 1142.75 157.852C1143.13 157.852 1143.46 157.777 1143.75 157.629C1144.05 157.473 1144.3 157.23 1144.5 156.902C1144.71 156.566 1144.87 156.129 1144.97 155.59C1145.07 155.051 1145.12 154.395 1145.12 153.621Z" fill="#1E1E1E"/>
</svg>
