<svg width="1320" height="305" viewBox="0 0 1320 305" fill="none" xmlns="http://www.w3.org/2000/svg">
<rect width="1320" height="304" transform="translate(0 0.253906)" fill="white"/>
<rect x="97.5" y="126.254" width="143" height="52" rx="26" fill="#FFD800"/>
<path d="M138.66 140.166V153.846H141.708V140.166H138.66ZM134.412 140.55V153.798H137.412V140.55H134.412ZM131.148 151.014V153.126H135.612V151.014H131.148ZM126.684 149.454V153.702H129.708V149.454H126.684ZM122.604 150.75C125.508 150.75 130.116 150.702 133.74 149.886L133.524 147.774C129.996 148.326 125.196 148.374 122.316 148.374L122.604 150.75ZM125.892 154.566V162.15H141.708V154.566H138.54V156.006H129.06V154.566H125.892ZM129.06 158.382H138.54V159.702H129.06V158.382ZM128.1 140.91C125.196 140.91 123.228 142.206 123.228 144.222C123.228 146.262 125.196 147.582 128.1 147.582C130.98 147.582 132.948 146.262 132.948 144.222C132.948 142.206 130.98 140.91 128.1 140.91ZM128.1 143.094C129.324 143.094 130.116 143.454 130.116 144.222C130.116 145.038 129.324 145.374 128.1 145.374C126.852 145.374 126.084 145.038 126.084 144.222C126.084 143.454 126.852 143.094 128.1 143.094ZM162.539 145.134V147.702H166.763V145.134H162.539ZM165.923 140.166V152.31H169.115V140.166H165.923ZM154.355 153.222V162.15H169.115V153.222H165.947V155.238H157.523V153.222H154.355ZM157.523 157.71H165.947V159.606H157.523V157.71ZM155.651 141.87V143.286C155.651 146.094 154.067 148.998 150.395 150.198L152.003 152.742C156.275 151.326 158.243 147.462 158.243 143.286V141.87H155.651ZM156.323 141.87V143.286C156.323 147.246 158.219 150.918 162.347 152.286L163.907 149.814C160.403 148.638 158.891 145.878 158.891 143.286V141.87H156.323ZM151.259 141.174V143.718H163.211V141.174H151.259ZM175.065 141.39V143.934H189.105V141.39H175.065ZM172.617 149.982V152.55H192.729V149.982H172.617ZM187.233 141.39V143.31C187.233 145.374 187.233 147.582 186.537 150.678L189.681 150.966C190.377 147.774 190.377 145.422 190.377 143.31V141.39H187.233ZM175.137 159.438V162.006H191.001V159.438H175.137ZM175.137 154.446V159.702H178.305V154.446H175.137ZM199.831 141.318V143.31C199.831 146.358 198.271 149.358 194.479 150.582L196.135 153.15C200.503 151.686 202.495 147.774 202.495 143.31V141.318H199.831ZM200.503 141.318V143.166C200.503 147.486 202.279 151.062 206.383 152.478L208.039 149.982C204.511 148.854 203.071 146.118 203.071 143.166V141.318H200.503ZM210.079 140.166V153.174H213.271V140.166H210.079ZM205.735 153.75C201.031 153.75 198.127 155.358 198.127 158.07C198.127 160.806 201.031 162.39 205.735 162.39C210.439 162.39 213.343 160.806 213.343 158.07C213.343 155.358 210.439 153.75 205.735 153.75ZM205.735 156.222C208.639 156.222 210.175 156.822 210.175 158.07C210.175 159.318 208.639 159.942 205.735 159.942C202.855 159.942 201.319 159.318 201.319 158.07C201.319 156.822 202.855 156.222 205.735 156.222ZM206.023 144.198V146.79H210.535V144.198H206.023Z" fill="#1E1E1E"/>
<path d="M290.602 154.047L278.708 149.798V144.807L294.869 151.598V155.179L290.602 154.047ZM278.708 157.609L290.62 153.268L294.869 152.247V155.81L278.708 162.601V157.609Z" fill="#1E1E1E"/>
<rect x="332.5" y="126.254" width="187" height="52" rx="26" fill="#FFE972"/>
<path d="M372.724 140.19V156.15H375.94V140.19H372.724ZM361.132 159.462V162.006H376.492V159.462H361.132ZM361.132 154.542V160.494H364.324V154.542H361.132ZM363.844 141.582C360.436 141.582 357.796 143.934 357.796 147.222C357.796 150.486 360.436 152.862 363.844 152.862C367.252 152.862 369.868 150.486 369.868 147.222C369.868 143.934 367.252 141.582 363.844 141.582ZM363.844 144.342C365.476 144.342 366.748 145.398 366.748 147.222C366.748 149.022 365.476 150.078 363.844 150.078C362.188 150.078 360.916 149.022 360.916 147.222C360.916 145.398 362.188 144.342 363.844 144.342ZM384.746 141.174V143.31C384.746 146.118 383.186 148.998 379.442 150.198L381.002 152.718C385.346 151.326 387.386 147.51 387.386 143.31V141.174H384.746ZM385.394 141.174V143.31C385.394 147.438 387.362 150.99 391.61 152.334L393.17 149.838C389.546 148.734 388.01 146.046 388.01 143.31V141.174H385.394ZM382.85 154.398V156.942H394.802V162.39H398.018V154.398H382.85ZM394.802 140.166V153.414H398.018V140.166H394.802ZM408.768 141.63C405.288 141.63 402.624 143.91 402.624 147.102C402.624 150.318 405.288 152.598 408.768 152.598C412.272 152.598 414.888 150.318 414.888 147.102C414.888 143.91 412.272 141.63 408.768 141.63ZM408.768 144.366C410.472 144.366 411.768 145.374 411.768 147.102C411.768 148.854 410.472 149.862 408.768 149.862C407.064 149.862 405.768 148.854 405.768 147.102C405.768 145.374 407.064 144.366 408.768 144.366ZM416.976 140.142V162.438H420.168V140.142H416.976ZM402.096 157.926C405.936 157.926 411.168 157.878 415.992 156.918L415.752 154.614C411.072 155.31 405.624 155.358 401.712 155.358L402.096 157.926ZM434.183 147.606V151.686H437.375V147.606H434.183ZM442.007 147.606V151.686H445.175V147.606H442.007ZM429.671 150.702V153.222H449.759V150.702H429.671ZM439.679 154.35C434.855 154.35 431.951 155.79 431.951 158.358C431.951 160.95 434.855 162.39 439.679 162.39C444.479 162.39 447.383 160.95 447.383 158.358C447.383 155.79 444.479 154.35 439.679 154.35ZM439.679 156.75C442.655 156.75 444.167 157.254 444.167 158.358C444.167 159.486 442.655 159.99 439.679 159.99C436.703 159.99 435.191 159.486 435.191 158.358C435.191 157.254 436.703 156.75 439.679 156.75ZM439.727 140.478C434.807 140.478 431.687 142.11 431.687 144.774C431.687 147.414 434.807 148.998 439.727 148.998C444.623 148.998 447.767 147.414 447.767 144.774C447.767 142.11 444.623 140.478 439.727 140.478ZM439.727 142.926C442.775 142.926 444.479 143.526 444.479 144.774C444.479 145.998 442.775 146.598 439.727 146.598C436.679 146.598 434.975 145.998 434.975 144.774C434.975 143.526 436.679 142.926 439.727 142.926ZM466.989 140.142V162.438H470.205V140.142H466.989ZM458.229 141.702C454.869 141.702 452.397 144.774 452.397 149.622C452.397 154.518 454.869 157.59 458.229 157.59C461.589 157.59 464.061 154.518 464.061 149.622C464.061 144.774 461.589 141.702 458.229 141.702ZM458.229 144.606C459.885 144.606 460.989 146.358 460.989 149.622C460.989 152.934 459.885 154.71 458.229 154.71C456.573 154.71 455.445 152.934 455.445 149.622C455.445 146.358 456.573 144.606 458.229 144.606ZM478.987 141.318V143.31C478.987 146.358 477.427 149.358 473.635 150.582L475.291 153.15C479.659 151.686 481.651 147.774 481.651 143.31V141.318H478.987ZM479.659 141.318V143.166C479.659 147.486 481.435 151.062 485.539 152.478L487.195 149.982C483.667 148.854 482.227 146.118 482.227 143.166V141.318H479.659ZM489.235 140.166V153.174H492.427V140.166H489.235ZM484.891 153.75C480.187 153.75 477.283 155.358 477.283 158.07C477.283 160.806 480.187 162.39 484.891 162.39C489.595 162.39 492.499 160.806 492.499 158.07C492.499 155.358 489.595 153.75 484.891 153.75ZM484.891 156.222C487.795 156.222 489.331 156.822 489.331 158.07C489.331 159.318 487.795 159.942 484.891 159.942C482.011 159.942 480.475 159.318 480.475 158.07C480.475 156.822 482.011 156.222 484.891 156.222ZM485.179 144.198V146.79H489.691V144.198H485.179Z" fill="#1E1E1E"/>
<path d="M569.602 154.047L557.708 149.798V144.807L573.869 151.598V155.179L569.602 154.047ZM557.708 157.609L569.62 153.268L573.869 152.247V155.81L557.708 162.601V157.609Z" fill="#1E1E1E"/>
<rect x="611.5" y="126.254" width="287" height="52" rx="26" fill="#FFF6C1"/>
<path d="M641.596 142.374V143.79C641.596 146.574 640.012 149.502 636.34 150.702L637.948 153.222C642.22 151.83 644.188 147.966 644.188 143.79V142.374H641.596ZM642.268 142.374V143.79C642.268 147.726 644.164 151.422 648.292 152.79L649.852 150.294C646.348 149.118 644.836 146.382 644.836 143.79V142.374H642.268ZM648.556 145.47V148.062H652.78V145.47H648.556ZM637.204 141.39V143.91H649.156V141.39H637.204ZM639.916 154.398V156.942H651.868V162.39H655.06V154.398H639.916ZM651.868 140.166V153.39H655.06V140.166H651.868ZM670.562 144.702V147.222H676.058V144.702H670.562ZM663.578 142.038V143.262C663.578 145.638 661.922 148.326 658.346 149.478L659.858 151.95C664.106 150.702 666.17 147.006 666.17 143.262V142.038H663.578ZM664.226 142.038V143.262C664.226 146.958 666.17 150.294 670.322 151.494L671.786 148.998C668.33 147.99 666.818 145.59 666.818 143.262V142.038H664.226ZM659.186 140.982V143.526H671.138V140.982H659.186ZM673.946 140.166V151.446H677.138V140.166H673.946ZM662.45 152.334V154.806H673.97V156.054H662.474V161.142H665.642V158.358H677.138V152.334H662.45ZM662.474 159.702V162.174H677.762V159.702H662.474ZM694.92 140.19V156.798H698.112V140.19H694.92ZM697.2 146.958V149.574H701.064V146.958H697.2ZM680.616 142.494V144.99H693.696V142.494H680.616ZM687.168 145.782C683.952 145.782 681.696 147.534 681.696 150.078C681.696 152.622 683.952 154.35 687.168 154.35C690.36 154.35 692.616 152.622 692.616 150.078C692.616 147.534 690.36 145.782 687.168 145.782ZM687.168 148.206C688.584 148.206 689.568 148.878 689.568 150.078C689.568 151.278 688.584 151.926 687.168 151.926C685.752 151.926 684.768 151.278 684.768 150.078C684.768 148.878 685.752 148.206 687.168 148.206ZM685.56 140.142V143.718H688.752V140.142H685.56ZM683.784 159.462V162.006H698.904V159.462H683.784ZM683.784 155.55V160.566H686.976V155.55H683.784ZM724.727 140.166V162.39H727.751V140.166H724.727ZM721.751 148.71V151.278H725.447V148.71H721.751ZM719.759 140.55V161.334H722.711V140.55H719.759ZM709.295 154.758V157.374H710.855C713.711 157.374 716.063 157.302 718.751 156.774L718.511 154.182C715.871 154.662 713.591 154.758 710.855 154.758H709.295ZM709.295 142.734V156.006H712.463V145.302H717.503V142.734H709.295ZM739.797 148.59V151.158H743.325V148.59H739.797ZM734.637 146.334V146.91C734.637 150.318 733.509 153.966 730.341 155.814L732.141 158.214C735.693 156.174 737.037 151.542 737.037 146.91V146.334H734.637ZM735.261 146.334V146.91C735.261 151.47 736.629 155.814 740.229 157.686L741.957 155.334C738.813 153.654 737.661 150.27 737.661 146.91V146.334H735.261ZM731.181 143.886V146.454H741.093V143.886H731.181ZM734.637 140.91V145.974H737.661V140.91H734.637ZM746.805 140.166V162.39H749.829V140.166H746.805ZM742.317 140.526V161.382H745.293V140.526H742.317ZM768.188 145.806V148.35H771.572V145.806H768.188ZM759.668 150.582V153.078H761.18C764.468 153.078 766.58 153.03 769.1 152.598L768.812 150.102C766.388 150.51 764.348 150.582 761.18 150.582H759.668ZM759.668 141.63V151.686H762.74V144.15H768.044V141.63H759.668ZM761.828 146.118V148.518H767.228V146.118H761.828ZM762.452 154.926V157.446H774.572V162.39H777.74V154.926H762.452ZM774.716 140.166V154.038H777.74V140.166H774.716ZM770.372 140.598V153.894H773.348V140.598H770.372ZM789.138 141.438V143.046C789.138 146.238 786.378 149.766 781.362 150.63L782.73 153.27C788.49 152.142 791.922 147.87 791.922 143.046V141.438H789.138ZM789.786 141.438V143.046C789.786 147.942 793.194 152.142 798.954 153.27L800.322 150.63C795.282 149.766 792.546 146.31 792.546 143.046V141.438H789.786ZM780.906 157.086V159.678H801.018V157.086H780.906ZM805.336 151.614V154.11H820.96V151.614H805.336ZM802.984 157.254V159.846H823.096V157.254H802.984ZM805.336 141.774V152.31H808.576V144.342H820.768V141.774H805.336ZM807.592 146.67V149.142H820.264V146.67H807.592ZM847.071 140.166V162.39H850.095V140.166H847.071ZM839.751 147.75V150.342H843.423V147.75H839.751ZM842.583 140.526V161.382H845.559V140.526H842.583ZM834.951 143.79V146.07C834.951 149.862 833.823 153.846 830.559 155.886L832.455 158.238C835.983 156.03 837.351 151.062 837.351 146.07V143.79H834.951ZM835.671 143.79V146.07C835.671 150.966 836.967 155.622 840.495 157.71L842.367 155.382C839.151 153.51 838.047 149.766 838.047 146.07V143.79H835.671ZM831.399 142.398V144.966H841.311V142.398H831.399ZM863.029 153.99C858.229 153.99 855.157 155.574 855.157 158.214C855.157 160.806 858.229 162.39 863.029 162.39C867.829 162.39 870.901 160.806 870.901 158.214C870.901 155.574 867.829 153.99 863.029 153.99ZM863.029 156.39C866.029 156.39 867.733 157.014 867.733 158.214C867.733 159.39 866.029 159.99 863.029 159.99C860.029 159.99 858.325 159.39 858.325 158.214C858.325 157.014 860.029 156.39 863.029 156.39ZM855.397 141.15V143.67H869.461V141.15H855.397ZM853.141 150.078V152.622H873.157V150.078H853.141ZM860.557 146.214V150.726H863.725V146.214H860.557ZM867.613 141.15V142.974C867.613 144.702 867.613 146.31 867.013 148.59L870.181 148.926C870.781 146.622 870.781 144.726 870.781 142.974V141.15H867.613Z" fill="#1E1E1E"/>
<path d="M948.602 154.047L936.708 149.798V144.807L952.869 151.598V155.179L948.602 154.047ZM936.708 157.609L948.62 153.268L952.869 152.247V155.81L936.708 162.601V157.609Z" fill="#1E1E1E"/>
<rect width="232" height="248" transform="translate(990.5 28.2539)" fill="white"/>
<rect x="998.5" y="36.2539" width="152" height="52" rx="26" fill="#E9AFAF"/>
<path d="M1027.38 57.5742V70.2539H1023.99V57.5742H1027.38ZM1023.78 54.2695C1023.78 53.7773 1023.95 53.3711 1024.29 53.0508C1024.64 52.7305 1025.1 52.5703 1025.68 52.5703C1026.25 52.5703 1026.7 52.7305 1027.05 53.0508C1027.4 53.3711 1027.57 53.7773 1027.57 54.2695C1027.57 54.7617 1027.4 55.168 1027.05 55.4883C1026.7 55.8086 1026.25 55.9688 1025.68 55.9688C1025.1 55.9688 1024.64 55.8086 1024.29 55.4883C1023.95 55.168 1023.78 54.7617 1023.78 54.2695ZM1033.54 60.1992V70.2539H1030.15V57.5742H1033.33L1033.54 60.1992ZM1033.07 63.4688H1032.13C1032.13 62.5859 1032.24 61.7734 1032.45 61.0312C1032.67 60.2812 1032.98 59.6328 1033.4 59.0859C1033.82 58.5312 1034.34 58.1016 1034.96 57.7969C1035.57 57.4922 1036.29 57.3398 1037.1 57.3398C1037.66 57.3398 1038.18 57.4258 1038.65 57.5977C1039.12 57.7617 1039.52 58.0234 1039.86 58.3828C1040.2 58.7344 1040.46 59.1953 1040.65 59.7656C1040.84 60.3281 1040.93 61.0039 1040.93 61.793V70.2539H1037.56V62.168C1037.56 61.5898 1037.48 61.1445 1037.32 60.832C1037.17 60.5195 1036.95 60.3008 1036.66 60.1758C1036.38 60.0508 1036.04 59.9883 1035.64 59.9883C1035.2 59.9883 1034.82 60.0781 1034.49 60.2578C1034.17 60.4375 1033.9 60.6875 1033.69 61.0078C1033.48 61.3203 1033.32 61.6875 1033.22 62.1094C1033.12 62.5312 1033.07 62.9844 1033.07 63.4688ZM1040.62 63.082L1039.41 63.2344C1039.41 62.4062 1039.51 61.6367 1039.71 60.9258C1039.93 60.2148 1040.23 59.5898 1040.64 59.0508C1041.05 58.5117 1041.57 58.0938 1042.18 57.7969C1042.79 57.4922 1043.49 57.3398 1044.29 57.3398C1044.89 57.3398 1045.45 57.4297 1045.95 57.6094C1046.45 57.7812 1046.88 58.0586 1047.23 58.4414C1047.59 58.8164 1047.86 59.3086 1048.05 59.918C1048.24 60.5273 1048.34 61.2734 1048.34 62.1562V70.2539H1044.95V62.1562C1044.95 61.5703 1044.88 61.125 1044.72 60.8203C1044.57 60.5078 1044.35 60.293 1044.06 60.1758C1043.78 60.0508 1043.45 59.9883 1043.05 59.9883C1042.65 59.9883 1042.29 60.0703 1041.99 60.2344C1041.68 60.3906 1041.43 60.6094 1041.23 60.8906C1041.02 61.1719 1040.87 61.5 1040.77 61.875C1040.67 62.2422 1040.62 62.6445 1040.62 63.082ZM1057.8 67.3945V61.7461C1057.8 61.3398 1057.73 60.9922 1057.6 60.7031C1057.46 60.4062 1057.26 60.1758 1056.98 60.0117C1056.7 59.8477 1056.35 59.7656 1055.91 59.7656C1055.54 59.7656 1055.21 59.832 1054.94 59.9648C1054.66 60.0898 1054.45 60.2734 1054.3 60.5156C1054.16 60.75 1054.08 61.0273 1054.08 61.3477H1050.71C1050.71 60.8086 1050.83 60.2969 1051.08 59.8125C1051.33 59.3281 1051.7 58.9023 1052.17 58.5352C1052.65 58.1602 1053.21 57.8672 1053.87 57.6562C1054.54 57.4453 1055.28 57.3398 1056.1 57.3398C1057.08 57.3398 1057.96 57.5039 1058.72 57.832C1059.49 58.1602 1060.09 58.6523 1060.53 59.3086C1060.97 59.9648 1061.2 60.7852 1061.2 61.7695V67.1953C1061.2 67.8906 1061.24 68.4609 1061.32 68.9062C1061.41 69.3438 1061.54 69.7266 1061.7 70.0547V70.2539H1058.29C1058.12 69.9102 1058 69.4805 1057.91 68.9648C1057.84 68.4414 1057.8 67.918 1057.8 67.3945ZM1058.24 62.5312L1058.27 64.4414H1056.38C1055.93 64.4414 1055.55 64.4922 1055.22 64.5938C1054.89 64.6953 1054.62 64.8398 1054.41 65.0273C1054.2 65.207 1054.04 65.418 1053.94 65.6602C1053.85 65.9023 1053.8 66.168 1053.8 66.457C1053.8 66.7461 1053.87 67.0078 1054 67.2422C1054.13 67.4688 1054.32 67.6484 1054.57 67.7812C1054.82 67.9062 1055.12 67.9688 1055.45 67.9688C1055.96 67.9688 1056.4 67.8672 1056.78 67.6641C1057.15 67.4609 1057.44 67.2109 1057.64 66.9141C1057.86 66.6172 1057.96 66.3359 1057.97 66.0703L1058.86 67.5C1058.74 67.8203 1058.57 68.1523 1058.35 68.4961C1058.14 68.8398 1057.87 69.1641 1057.54 69.4688C1057.21 69.7656 1056.82 70.0117 1056.36 70.207C1055.89 70.3945 1055.35 70.4883 1054.71 70.4883C1053.91 70.4883 1053.18 70.3281 1052.52 70.0078C1051.88 69.6797 1051.36 69.2305 1050.98 68.6602C1050.6 68.082 1050.41 67.4258 1050.41 66.6914C1050.41 66.0273 1050.54 65.4375 1050.79 64.9219C1051.04 64.4062 1051.41 63.9727 1051.89 63.6211C1052.38 63.2617 1053 62.9922 1053.73 62.8125C1054.46 62.625 1055.32 62.5312 1056.29 62.5312H1058.24ZM1071.82 57.5742H1074.88V69.832C1074.88 70.9883 1074.62 71.9688 1074.11 72.7734C1073.6 73.5859 1072.89 74.1992 1071.98 74.6133C1071.06 75.0352 1070 75.2461 1068.79 75.2461C1068.26 75.2461 1067.7 75.1758 1067.1 75.0352C1066.52 74.8945 1065.95 74.6758 1065.41 74.3789C1064.88 74.082 1064.44 73.707 1064.08 73.2539L1065.57 71.2617C1065.96 71.7148 1066.41 72.0664 1066.93 72.3164C1067.44 72.5742 1068.01 72.7031 1068.64 72.7031C1069.25 72.7031 1069.76 72.5898 1070.18 72.3633C1070.61 72.1445 1070.93 71.8203 1071.16 71.3906C1071.38 70.9688 1071.5 70.457 1071.5 69.8555V60.5039L1071.82 57.5742ZM1063.29 64.0664V63.8203C1063.29 62.8516 1063.41 61.9727 1063.64 61.1836C1063.89 60.3867 1064.23 59.7031 1064.66 59.1328C1065.11 58.5625 1065.65 58.1211 1066.28 57.8086C1066.91 57.4961 1067.63 57.3398 1068.43 57.3398C1069.27 57.3398 1069.98 57.4961 1070.55 57.8086C1071.12 58.1211 1071.59 58.5664 1071.95 59.1445C1072.32 59.7148 1072.61 60.3906 1072.81 61.1719C1073.02 61.9453 1073.18 62.793 1073.3 63.7148V64.2539C1073.18 65.1367 1073.01 65.957 1072.77 66.7148C1072.54 67.4727 1072.23 68.1367 1071.85 68.707C1071.46 69.2695 1070.99 69.707 1070.42 70.0195C1069.86 70.332 1069.18 70.4883 1068.4 70.4883C1067.62 70.4883 1066.91 70.3281 1066.28 70.0078C1065.66 69.6875 1065.12 69.2383 1064.68 68.6602C1064.23 68.082 1063.89 67.4023 1063.64 66.6211C1063.41 65.8398 1063.29 64.9883 1063.29 64.0664ZM1066.67 63.8203V64.0664C1066.67 64.5898 1066.72 65.0781 1066.82 65.5312C1066.92 65.9844 1067.08 66.3867 1067.29 66.7383C1067.51 67.082 1067.78 67.3516 1068.1 67.5469C1068.43 67.7344 1068.81 67.8281 1069.26 67.8281C1069.88 67.8281 1070.38 67.6992 1070.77 67.4414C1071.16 67.1758 1071.45 66.8125 1071.65 66.3516C1071.84 65.8906 1071.96 65.3594 1071.99 64.7578V63.2227C1071.97 62.7305 1071.91 62.2891 1071.79 61.8984C1071.67 61.5 1071.51 61.1602 1071.3 60.8789C1071.09 60.5977 1070.81 60.3789 1070.48 60.2227C1070.14 60.0664 1069.74 59.9883 1069.28 59.9883C1068.84 59.9883 1068.45 60.0898 1068.12 60.293C1067.8 60.4883 1067.53 60.7578 1067.31 61.1016C1067.1 61.4453 1066.94 61.8516 1066.83 62.3203C1066.72 62.7812 1066.67 63.2812 1066.67 63.8203ZM1083.34 70.4883C1082.36 70.4883 1081.48 70.332 1080.7 70.0195C1079.91 69.6992 1079.25 69.2578 1078.7 68.6953C1078.16 68.1328 1077.75 67.4805 1077.46 66.7383C1077.17 65.9883 1077.03 65.1914 1077.03 64.3477V63.8789C1077.03 62.918 1077.16 62.0391 1077.44 61.2422C1077.71 60.4453 1078.1 59.7539 1078.61 59.168C1079.12 58.582 1079.75 58.1328 1080.48 57.8203C1081.22 57.5 1082.05 57.3398 1082.97 57.3398C1083.87 57.3398 1084.66 57.4883 1085.36 57.7852C1086.05 58.082 1086.64 58.5039 1087.11 59.0508C1087.58 59.5977 1087.94 60.2539 1088.18 61.0195C1088.43 61.7773 1088.55 62.6211 1088.55 63.5508V64.957H1078.47V62.707H1085.23V62.4492C1085.23 61.9805 1085.14 61.5625 1084.97 61.1953C1084.81 60.8203 1084.56 60.5234 1084.22 60.3047C1083.89 60.0859 1083.46 59.9766 1082.93 59.9766C1082.49 59.9766 1082.11 60.0742 1081.79 60.2695C1081.46 60.4648 1081.2 60.7383 1081 61.0898C1080.8 61.4414 1080.66 61.8555 1080.55 62.332C1080.46 62.8008 1080.41 63.3164 1080.41 63.8789V64.3477C1080.41 64.8555 1080.48 65.3242 1080.62 65.7539C1080.77 66.1836 1080.98 66.5547 1081.25 66.8672C1081.52 67.1797 1081.85 67.4219 1082.23 67.5938C1082.62 67.7656 1083.06 67.8516 1083.55 67.8516C1084.16 67.8516 1084.73 67.7344 1085.25 67.5C1085.79 67.2578 1086.24 66.8945 1086.62 66.4102L1088.27 68.1914C1088 68.5742 1087.64 68.9414 1087.18 69.293C1086.72 69.6445 1086.18 69.9336 1085.54 70.1602C1084.89 70.3789 1084.16 70.4883 1083.34 70.4883ZM1097.12 61.6055V64.2539H1090.5V61.6055H1097.12ZM1106.78 67.3945V61.7461C1106.78 61.3398 1106.71 60.9922 1106.58 60.7031C1106.45 60.4062 1106.24 60.1758 1105.96 60.0117C1105.69 59.8477 1105.33 59.7656 1104.89 59.7656C1104.52 59.7656 1104.2 59.832 1103.92 59.9648C1103.65 60.0898 1103.44 60.2734 1103.29 60.5156C1103.14 60.75 1103.07 61.0273 1103.07 61.3477H1099.69C1099.69 60.8086 1099.82 60.2969 1100.07 59.8125C1100.32 59.3281 1100.68 58.9023 1101.16 58.5352C1101.63 58.1602 1102.2 57.8672 1102.86 57.6562C1103.52 57.4453 1104.26 57.3398 1105.08 57.3398C1106.07 57.3398 1106.94 57.5039 1107.71 57.832C1108.47 58.1602 1109.07 58.6523 1109.51 59.3086C1109.96 59.9648 1110.18 60.7852 1110.18 61.7695V67.1953C1110.18 67.8906 1110.22 68.4609 1110.31 68.9062C1110.39 69.3438 1110.52 69.7266 1110.68 70.0547V70.2539H1107.27C1107.11 69.9102 1106.98 69.4805 1106.9 68.9648C1106.82 68.4414 1106.78 67.918 1106.78 67.3945ZM1107.23 62.5312L1107.25 64.4414H1105.36C1104.92 64.4414 1104.53 64.4922 1104.2 64.5938C1103.88 64.6953 1103.61 64.8398 1103.39 65.0273C1103.18 65.207 1103.03 65.418 1102.93 65.6602C1102.83 65.9023 1102.79 66.168 1102.79 66.457C1102.79 66.7461 1102.85 67.0078 1102.98 67.2422C1103.12 67.4688 1103.31 67.6484 1103.56 67.7812C1103.81 67.9062 1104.1 67.9688 1104.44 67.9688C1104.95 67.9688 1105.39 67.8672 1105.76 67.6641C1106.14 67.4609 1106.43 67.2109 1106.63 66.9141C1106.84 66.6172 1106.95 66.3359 1106.96 66.0703L1107.85 67.5C1107.72 67.8203 1107.55 68.1523 1107.33 68.4961C1107.12 68.8398 1106.85 69.1641 1106.52 69.4688C1106.2 69.7656 1105.8 70.0117 1105.34 70.207C1104.88 70.3945 1104.33 70.4883 1103.7 70.4883C1102.89 70.4883 1102.16 70.3281 1101.51 70.0078C1100.86 69.6797 1100.34 69.2305 1099.96 68.6602C1099.59 68.082 1099.4 67.4258 1099.4 66.6914C1099.4 66.0273 1099.52 65.4375 1099.77 64.9219C1100.02 64.4062 1100.39 63.9727 1100.88 63.6211C1101.37 63.2617 1101.98 62.9922 1102.71 62.8125C1103.45 62.625 1104.3 62.5312 1105.27 62.5312H1107.23ZM1116.34 52.2539V70.2539H1112.96V52.2539H1116.34ZM1125.34 57.5742V59.9648H1117.96V57.5742H1125.34ZM1119.79 54.4453H1123.16V66.4336C1123.16 66.8008 1123.21 67.082 1123.3 67.2773C1123.41 67.4727 1123.55 67.6094 1123.75 67.6875C1123.95 67.7578 1124.19 67.793 1124.49 67.793C1124.7 67.793 1124.89 67.7852 1125.05 67.7695C1125.22 67.7461 1125.37 67.7227 1125.48 67.6992L1125.5 70.1836C1125.21 70.2773 1124.89 70.3516 1124.56 70.4062C1124.22 70.4609 1123.85 70.4883 1123.45 70.4883C1122.7 70.4883 1122.05 70.3672 1121.5 70.125C1120.95 69.875 1120.53 69.4766 1120.23 68.9297C1119.94 68.3828 1119.79 67.6641 1119.79 66.7734V54.4453Z" fill="#1E1E1E"/>
<rect x="998.5" y="96.2539" width="216" height="52" rx="26" fill="#E9AFAF"/>
<path d="M1027.38 117.574V130.254H1023.99V117.574H1027.38ZM1023.78 114.27C1023.78 113.777 1023.95 113.371 1024.29 113.051C1024.64 112.73 1025.1 112.57 1025.68 112.57C1026.25 112.57 1026.7 112.73 1027.05 113.051C1027.4 113.371 1027.57 113.777 1027.57 114.27C1027.57 114.762 1027.4 115.168 1027.05 115.488C1026.7 115.809 1026.25 115.969 1025.68 115.969C1025.1 115.969 1024.64 115.809 1024.29 115.488C1023.95 115.168 1023.78 114.762 1023.78 114.27ZM1033.47 120.281V130.254H1030.09V117.574H1033.26L1033.47 120.281ZM1032.98 123.469H1032.06C1032.06 122.531 1032.18 121.688 1032.43 120.938C1032.67 120.18 1033.01 119.535 1033.45 119.004C1033.88 118.465 1034.4 118.055 1035 117.773C1035.61 117.484 1036.29 117.34 1037.04 117.34C1037.64 117.34 1038.18 117.426 1038.67 117.598C1039.16 117.77 1039.59 118.043 1039.94 118.418C1040.3 118.793 1040.57 119.289 1040.76 119.906C1040.95 120.523 1041.05 121.277 1041.05 122.168V130.254H1037.65V122.156C1037.65 121.594 1037.57 121.156 1037.42 120.844C1037.26 120.531 1037.03 120.312 1036.73 120.188C1036.43 120.055 1036.06 119.988 1035.62 119.988C1035.17 119.988 1034.78 120.078 1034.44 120.258C1034.11 120.438 1033.84 120.688 1033.62 121.008C1033.41 121.32 1033.25 121.688 1033.14 122.109C1033.03 122.531 1032.98 122.984 1032.98 123.469ZM1046.99 120.012V135.129H1043.62V117.574H1046.75L1046.99 120.012ZM1055.02 123.773V124.02C1055.02 124.941 1054.91 125.797 1054.69 126.586C1054.48 127.375 1054.17 128.062 1053.75 128.648C1053.34 129.227 1052.82 129.68 1052.21 130.008C1051.6 130.328 1050.89 130.488 1050.1 130.488C1049.32 130.488 1048.65 130.332 1048.08 130.02C1047.51 129.707 1047.03 129.27 1046.64 128.707C1046.26 128.137 1045.95 127.477 1045.71 126.727C1045.48 125.977 1045.3 125.172 1045.18 124.312V123.668C1045.3 122.746 1045.48 121.902 1045.71 121.137C1045.95 120.363 1046.26 119.695 1046.64 119.133C1047.03 118.562 1047.51 118.121 1048.07 117.809C1048.64 117.496 1049.31 117.34 1050.07 117.34C1050.88 117.34 1051.59 117.492 1052.2 117.797C1052.81 118.102 1053.33 118.539 1053.74 119.109C1054.16 119.68 1054.48 120.359 1054.69 121.148C1054.91 121.938 1055.02 122.812 1055.02 123.773ZM1051.63 124.02V123.773C1051.63 123.234 1051.59 122.738 1051.49 122.285C1051.41 121.824 1051.27 121.422 1051.07 121.078C1050.88 120.734 1050.63 120.469 1050.32 120.281C1050.02 120.086 1049.64 119.988 1049.21 119.988C1048.75 119.988 1048.35 120.062 1048.02 120.211C1047.7 120.359 1047.44 120.574 1047.24 120.855C1047.04 121.137 1046.88 121.473 1046.78 121.863C1046.68 122.254 1046.62 122.695 1046.59 123.188V124.816C1046.63 125.395 1046.74 125.914 1046.92 126.375C1047.1 126.828 1047.38 127.188 1047.75 127.453C1048.13 127.719 1048.62 127.852 1049.23 127.852C1049.68 127.852 1050.05 127.754 1050.36 127.559C1050.66 127.355 1050.91 127.078 1051.09 126.727C1051.29 126.375 1051.43 125.969 1051.5 125.508C1051.59 125.047 1051.63 124.551 1051.63 124.02ZM1064.62 127.219V117.574H1067.99V130.254H1064.82L1064.62 127.219ZM1064.99 124.617L1065.99 124.594C1065.99 125.438 1065.89 126.223 1065.7 126.949C1065.5 127.668 1065.21 128.293 1064.82 128.824C1064.43 129.348 1063.93 129.758 1063.34 130.055C1062.75 130.344 1062.05 130.488 1061.24 130.488C1060.62 130.488 1060.05 130.402 1059.53 130.23C1059.02 130.051 1058.57 129.773 1058.2 129.398C1057.83 129.016 1057.54 128.527 1057.33 127.934C1057.12 127.332 1057.02 126.609 1057.02 125.766V117.574H1060.4V125.789C1060.4 126.164 1060.44 126.48 1060.53 126.738C1060.62 126.996 1060.75 127.207 1060.91 127.371C1061.08 127.535 1061.27 127.652 1061.49 127.723C1061.71 127.793 1061.96 127.828 1062.24 127.828C1062.93 127.828 1063.48 127.688 1063.88 127.406C1064.29 127.125 1064.57 126.742 1064.73 126.258C1064.91 125.766 1064.99 125.219 1064.99 124.617ZM1076.78 117.574V119.965H1069.4V117.574H1076.78ZM1071.23 114.445H1074.6V126.434C1074.6 126.801 1074.65 127.082 1074.74 127.277C1074.84 127.473 1074.99 127.609 1075.19 127.688C1075.38 127.758 1075.63 127.793 1075.93 127.793C1076.14 127.793 1076.32 127.785 1076.49 127.77C1076.66 127.746 1076.8 127.723 1076.92 127.699L1076.93 130.184C1076.64 130.277 1076.33 130.352 1076 130.406C1075.66 130.461 1075.29 130.488 1074.88 130.488C1074.14 130.488 1073.49 130.367 1072.94 130.125C1072.39 129.875 1071.97 129.477 1071.67 128.93C1071.38 128.383 1071.23 127.664 1071.23 126.773V114.445ZM1085.36 121.605V124.254H1078.74V121.605H1085.36ZM1091.73 117.574V130.254H1088.35V117.574H1091.73ZM1088.14 114.27C1088.14 113.777 1088.31 113.371 1088.65 113.051C1089 112.73 1089.46 112.57 1090.04 112.57C1090.61 112.57 1091.06 112.73 1091.41 113.051C1091.76 113.371 1091.93 113.777 1091.93 114.27C1091.93 114.762 1091.76 115.168 1091.41 115.488C1091.06 115.809 1090.61 115.969 1090.04 115.969C1089.46 115.969 1089 115.809 1088.65 115.488C1088.31 115.168 1088.14 114.762 1088.14 114.27ZM1097.9 120.199V130.254H1094.51V117.574H1097.69L1097.9 120.199ZM1097.43 123.469H1096.49C1096.49 122.586 1096.6 121.773 1096.81 121.031C1097.03 120.281 1097.34 119.633 1097.76 119.086C1098.18 118.531 1098.7 118.102 1099.32 117.797C1099.93 117.492 1100.65 117.34 1101.46 117.34C1102.02 117.34 1102.54 117.426 1103.01 117.598C1103.48 117.762 1103.88 118.023 1104.21 118.383C1104.56 118.734 1104.82 119.195 1105.01 119.766C1105.2 120.328 1105.29 121.004 1105.29 121.793V130.254H1101.92V122.168C1101.92 121.59 1101.84 121.145 1101.68 120.832C1101.53 120.52 1101.3 120.301 1101.02 120.176C1100.73 120.051 1100.39 119.988 1100 119.988C1099.56 119.988 1099.18 120.078 1098.85 120.258C1098.53 120.438 1098.26 120.688 1098.05 121.008C1097.84 121.32 1097.68 121.688 1097.58 122.109C1097.48 122.531 1097.43 122.984 1097.43 123.469ZM1104.98 123.082L1103.77 123.234C1103.77 122.406 1103.87 121.637 1104.07 120.926C1104.29 120.215 1104.59 119.59 1105 119.051C1105.41 118.512 1105.93 118.094 1106.54 117.797C1107.14 117.492 1107.85 117.34 1108.64 117.34C1109.25 117.34 1109.81 117.43 1110.31 117.609C1110.81 117.781 1111.23 118.059 1111.59 118.441C1111.95 118.816 1112.22 119.309 1112.41 119.918C1112.6 120.527 1112.7 121.273 1112.7 122.156V130.254H1109.31V122.156C1109.31 121.57 1109.23 121.125 1109.08 120.82C1108.93 120.508 1108.71 120.293 1108.42 120.176C1108.14 120.051 1107.8 119.988 1107.41 119.988C1107.01 119.988 1106.65 120.07 1106.35 120.234C1106.04 120.391 1105.79 120.609 1105.59 120.891C1105.38 121.172 1105.23 121.5 1105.13 121.875C1105.03 122.242 1104.98 122.645 1104.98 123.082ZM1122.16 127.395V121.746C1122.16 121.34 1122.09 120.992 1121.96 120.703C1121.82 120.406 1121.62 120.176 1121.34 120.012C1121.06 119.848 1120.71 119.766 1120.27 119.766C1119.89 119.766 1119.57 119.832 1119.3 119.965C1119.02 120.09 1118.81 120.273 1118.66 120.516C1118.52 120.75 1118.44 121.027 1118.44 121.348H1115.07C1115.07 120.809 1115.19 120.297 1115.44 119.812C1115.69 119.328 1116.05 118.902 1116.53 118.535C1117.01 118.16 1117.57 117.867 1118.23 117.656C1118.89 117.445 1119.64 117.34 1120.46 117.34C1121.44 117.34 1122.32 117.504 1123.08 117.832C1123.85 118.16 1124.45 118.652 1124.89 119.309C1125.33 119.965 1125.55 120.785 1125.55 121.77V127.195C1125.55 127.891 1125.6 128.461 1125.68 128.906C1125.77 129.344 1125.89 129.727 1126.06 130.055V130.254H1122.65C1122.48 129.91 1122.36 129.48 1122.27 128.965C1122.2 128.441 1122.16 127.918 1122.16 127.395ZM1122.6 122.531L1122.62 124.441H1120.74C1120.29 124.441 1119.91 124.492 1119.58 124.594C1119.25 124.695 1118.98 124.84 1118.77 125.027C1118.56 125.207 1118.4 125.418 1118.3 125.66C1118.21 125.902 1118.16 126.168 1118.16 126.457C1118.16 126.746 1118.23 127.008 1118.36 127.242C1118.49 127.469 1118.68 127.648 1118.93 127.781C1119.18 127.906 1119.48 127.969 1119.81 127.969C1120.32 127.969 1120.76 127.867 1121.14 127.664C1121.51 127.461 1121.8 127.211 1122 126.914C1122.21 126.617 1122.32 126.336 1122.33 126.07L1123.22 127.5C1123.1 127.82 1122.93 128.152 1122.71 128.496C1122.5 128.84 1122.23 129.164 1121.9 129.469C1121.57 129.766 1121.18 130.012 1120.71 130.207C1120.25 130.395 1119.71 130.488 1119.07 130.488C1118.27 130.488 1117.54 130.328 1116.88 130.008C1116.23 129.68 1115.72 129.23 1115.34 128.66C1114.96 128.082 1114.77 127.426 1114.77 126.691C1114.77 126.027 1114.9 125.438 1115.15 124.922C1115.4 124.406 1115.77 123.973 1116.25 123.621C1116.74 123.262 1117.36 122.992 1118.09 122.812C1118.82 122.625 1119.68 122.531 1120.64 122.531H1122.6ZM1136.18 117.574H1139.24V129.832C1139.24 130.988 1138.98 131.969 1138.47 132.773C1137.96 133.586 1137.25 134.199 1136.34 134.613C1135.42 135.035 1134.36 135.246 1133.15 135.246C1132.62 135.246 1132.05 135.176 1131.46 135.035C1130.88 134.895 1130.31 134.676 1129.77 134.379C1129.24 134.082 1128.8 133.707 1128.44 133.254L1129.93 131.262C1130.32 131.715 1130.77 132.066 1131.29 132.316C1131.8 132.574 1132.37 132.703 1133 132.703C1133.61 132.703 1134.12 132.59 1134.54 132.363C1134.96 132.145 1135.29 131.82 1135.52 131.391C1135.74 130.969 1135.86 130.457 1135.86 129.855V120.504L1136.18 117.574ZM1127.65 124.066V123.82C1127.65 122.852 1127.77 121.973 1128 121.184C1128.25 120.387 1128.59 119.703 1129.02 119.133C1129.47 118.562 1130.01 118.121 1130.64 117.809C1131.27 117.496 1131.99 117.34 1132.79 117.34C1133.63 117.34 1134.34 117.496 1134.91 117.809C1135.48 118.121 1135.95 118.566 1136.31 119.145C1136.68 119.715 1136.96 120.391 1137.17 121.172C1137.38 121.945 1137.54 122.793 1137.66 123.715V124.254C1137.54 125.137 1137.37 125.957 1137.13 126.715C1136.9 127.473 1136.59 128.137 1136.21 128.707C1135.82 129.27 1135.35 129.707 1134.78 130.02C1134.21 130.332 1133.54 130.488 1132.76 130.488C1131.98 130.488 1131.27 130.328 1130.64 130.008C1130.02 129.688 1129.48 129.238 1129.04 128.66C1128.59 128.082 1128.25 127.402 1128 126.621C1127.77 125.84 1127.65 124.988 1127.65 124.066ZM1131.03 123.82V124.066C1131.03 124.59 1131.08 125.078 1131.18 125.531C1131.28 125.984 1131.44 126.387 1131.65 126.738C1131.87 127.082 1132.14 127.352 1132.46 127.547C1132.79 127.734 1133.17 127.828 1133.62 127.828C1134.23 127.828 1134.74 127.699 1135.13 127.441C1135.52 127.176 1135.81 126.812 1136.01 126.352C1136.2 125.891 1136.32 125.359 1136.35 124.758V123.223C1136.33 122.73 1136.27 122.289 1136.15 121.898C1136.03 121.5 1135.87 121.16 1135.66 120.879C1135.45 120.598 1135.17 120.379 1134.84 120.223C1134.5 120.066 1134.1 119.988 1133.64 119.988C1133.2 119.988 1132.81 120.09 1132.48 120.293C1132.16 120.488 1131.89 120.758 1131.67 121.102C1131.46 121.445 1131.3 121.852 1131.19 122.32C1131.08 122.781 1131.03 123.281 1131.03 123.82ZM1147.7 130.488C1146.72 130.488 1145.84 130.332 1145.05 130.02C1144.27 129.699 1143.61 129.258 1143.06 128.695C1142.52 128.133 1142.11 127.48 1141.82 126.738C1141.53 125.988 1141.39 125.191 1141.39 124.348V123.879C1141.39 122.918 1141.52 122.039 1141.8 121.242C1142.07 120.445 1142.46 119.754 1142.97 119.168C1143.48 118.582 1144.11 118.133 1144.84 117.82C1145.58 117.5 1146.41 117.34 1147.33 117.34C1148.23 117.34 1149.02 117.488 1149.72 117.785C1150.41 118.082 1151 118.504 1151.46 119.051C1151.94 119.598 1152.3 120.254 1152.54 121.02C1152.79 121.777 1152.91 122.621 1152.91 123.551V124.957H1142.83V122.707H1149.59V122.449C1149.59 121.98 1149.5 121.562 1149.33 121.195C1149.17 120.82 1148.92 120.523 1148.58 120.305C1148.25 120.086 1147.82 119.977 1147.29 119.977C1146.85 119.977 1146.46 120.074 1146.14 120.27C1145.82 120.465 1145.56 120.738 1145.36 121.09C1145.16 121.441 1145.02 121.855 1144.91 122.332C1144.82 122.801 1144.77 123.316 1144.77 123.879V124.348C1144.77 124.855 1144.84 125.324 1144.98 125.754C1145.13 126.184 1145.34 126.555 1145.61 126.867C1145.88 127.18 1146.21 127.422 1146.59 127.594C1146.98 127.766 1147.42 127.852 1147.91 127.852C1148.52 127.852 1149.09 127.734 1149.61 127.5C1150.14 127.258 1150.6 126.895 1150.98 126.41L1152.62 128.191C1152.36 128.574 1152 128.941 1151.54 129.293C1151.08 129.645 1150.54 129.934 1149.89 130.16C1149.25 130.379 1148.52 130.488 1147.7 130.488ZM1161.48 121.605V124.254H1154.86V121.605H1161.48ZM1171.14 127.395V121.746C1171.14 121.34 1171.07 120.992 1170.94 120.703C1170.81 120.406 1170.6 120.176 1170.32 120.012C1170.05 119.848 1169.69 119.766 1169.25 119.766C1168.88 119.766 1168.55 119.832 1168.28 119.965C1168.01 120.09 1167.8 120.273 1167.65 120.516C1167.5 120.75 1167.43 121.027 1167.43 121.348H1164.05C1164.05 120.809 1164.18 120.297 1164.43 119.812C1164.68 119.328 1165.04 118.902 1165.52 118.535C1165.99 118.16 1166.56 117.867 1167.21 117.656C1167.88 117.445 1168.62 117.34 1169.44 117.34C1170.43 117.34 1171.3 117.504 1172.07 117.832C1172.83 118.16 1173.43 118.652 1173.87 119.309C1174.32 119.965 1174.54 120.785 1174.54 121.77V127.195C1174.54 127.891 1174.58 128.461 1174.67 128.906C1174.75 129.344 1174.88 129.727 1175.04 130.055V130.254H1171.63C1171.47 129.91 1171.34 129.48 1171.26 128.965C1171.18 128.441 1171.14 127.918 1171.14 127.395ZM1171.59 122.531L1171.61 124.441H1169.72C1169.28 124.441 1168.89 124.492 1168.56 124.594C1168.23 124.695 1167.96 124.84 1167.75 125.027C1167.54 125.207 1167.39 125.418 1167.29 125.66C1167.19 125.902 1167.14 126.168 1167.14 126.457C1167.14 126.746 1167.21 127.008 1167.34 127.242C1167.48 127.469 1167.67 127.648 1167.92 127.781C1168.17 127.906 1168.46 127.969 1168.8 127.969C1169.3 127.969 1169.75 127.867 1170.12 127.664C1170.5 127.461 1170.79 127.211 1170.99 126.914C1171.2 126.617 1171.31 126.336 1171.32 126.07L1172.21 127.5C1172.08 127.82 1171.91 128.152 1171.69 128.496C1171.48 128.84 1171.21 129.164 1170.88 129.469C1170.55 129.766 1170.16 130.012 1169.7 130.207C1169.24 130.395 1168.69 130.488 1168.06 130.488C1167.25 130.488 1166.52 130.328 1165.87 130.008C1165.22 129.68 1164.7 129.23 1164.32 128.66C1163.95 128.082 1163.76 127.426 1163.76 126.691C1163.76 126.027 1163.88 125.438 1164.13 124.922C1164.38 124.406 1164.75 123.973 1165.23 123.621C1165.73 123.262 1166.34 122.992 1167.07 122.812C1167.81 122.625 1168.66 122.531 1169.63 122.531H1171.59ZM1180.7 112.254V130.254H1177.32V112.254H1180.7ZM1189.7 117.574V119.965H1182.32V117.574H1189.7ZM1184.15 114.445H1187.52V126.434C1187.52 126.801 1187.57 127.082 1187.66 127.277C1187.77 127.473 1187.91 127.609 1188.11 127.688C1188.3 127.758 1188.55 127.793 1188.85 127.793C1189.06 127.793 1189.25 127.785 1189.41 127.77C1189.58 127.746 1189.73 127.723 1189.84 127.699L1189.86 130.184C1189.57 130.277 1189.25 130.352 1188.92 130.406C1188.58 130.461 1188.21 130.488 1187.8 130.488C1187.06 130.488 1186.41 130.367 1185.86 130.125C1185.31 129.875 1184.89 129.477 1184.59 128.93C1184.3 128.383 1184.15 127.664 1184.15 126.773V114.445Z" fill="#1E1E1E"/>
<rect x="998.5" y="156.254" width="152" height="52" rx="26" fill="#E9AFAF"/>
<path d="M1023.27 184.043V183.797C1023.27 182.867 1023.41 182.012 1023.67 181.23C1023.94 180.441 1024.32 179.758 1024.83 179.18C1025.34 178.602 1025.96 178.152 1026.71 177.832C1027.45 177.504 1028.3 177.34 1029.26 177.34C1030.22 177.34 1031.08 177.504 1031.83 177.832C1032.58 178.152 1033.21 178.602 1033.71 179.18C1034.23 179.758 1034.62 180.441 1034.89 181.23C1035.15 182.012 1035.29 182.867 1035.29 183.797V184.043C1035.29 184.965 1035.15 185.82 1034.89 186.609C1034.62 187.391 1034.23 188.074 1033.71 188.66C1033.21 189.238 1032.58 189.688 1031.84 190.008C1031.1 190.328 1030.25 190.488 1029.29 190.488C1028.32 190.488 1027.47 190.328 1026.72 190.008C1025.98 189.688 1025.35 189.238 1024.83 188.66C1024.32 188.074 1023.94 187.391 1023.67 186.609C1023.41 185.82 1023.27 184.965 1023.27 184.043ZM1026.65 183.797V184.043C1026.65 184.574 1026.7 185.07 1026.79 185.531C1026.88 185.992 1027.03 186.398 1027.23 186.75C1027.45 187.094 1027.72 187.363 1028.05 187.559C1028.39 187.754 1028.8 187.852 1029.29 187.852C1029.75 187.852 1030.16 187.754 1030.49 187.559C1030.83 187.363 1031.1 187.094 1031.3 186.75C1031.5 186.398 1031.65 185.992 1031.75 185.531C1031.85 185.07 1031.9 184.574 1031.9 184.043V183.797C1031.9 183.281 1031.85 182.797 1031.75 182.344C1031.65 181.883 1031.5 181.477 1031.29 181.125C1031.09 180.766 1030.82 180.484 1030.48 180.281C1030.14 180.078 1029.74 179.977 1029.26 179.977C1028.79 179.977 1028.38 180.078 1028.04 180.281C1027.71 180.484 1027.45 180.766 1027.23 181.125C1027.03 181.477 1026.88 181.883 1026.79 182.344C1026.7 182.797 1026.65 183.281 1026.65 183.797ZM1037.36 172.254H1040.73V187.348L1040.39 190.254H1037.36V172.254ZM1048.76 183.785V184.031C1048.76 184.977 1048.66 185.844 1048.46 186.633C1048.26 187.422 1047.96 188.105 1047.54 188.684C1047.13 189.254 1046.61 189.699 1046 190.02C1045.39 190.332 1044.67 190.488 1043.84 190.488C1043.07 190.488 1042.39 190.332 1041.82 190.02C1041.26 189.707 1040.79 189.266 1040.41 188.695C1040.02 188.125 1039.71 187.457 1039.48 186.691C1039.25 185.926 1039.07 185.09 1038.95 184.184V183.645C1039.07 182.738 1039.25 181.902 1039.48 181.137C1039.71 180.371 1040.02 179.703 1040.41 179.133C1040.79 178.562 1041.26 178.121 1041.82 177.809C1042.39 177.496 1043.05 177.34 1043.82 177.34C1044.65 177.34 1045.38 177.5 1046 177.82C1046.62 178.133 1047.14 178.578 1047.54 179.156C1047.96 179.727 1048.26 180.406 1048.46 181.195C1048.66 181.977 1048.76 182.84 1048.76 183.785ZM1045.39 184.031V183.785C1045.39 183.27 1045.35 182.785 1045.27 182.332C1045.2 181.871 1045.07 181.469 1044.89 181.125C1044.71 180.773 1044.47 180.496 1044.16 180.293C1043.85 180.09 1043.46 179.988 1042.97 179.988C1042.51 179.988 1042.12 180.066 1041.8 180.223C1041.48 180.379 1041.21 180.598 1041 180.879C1040.8 181.16 1040.65 181.496 1040.55 181.887C1040.45 182.27 1040.38 182.691 1040.36 183.152V184.688C1040.38 185.305 1040.48 185.852 1040.66 186.328C1040.85 186.797 1041.13 187.168 1041.51 187.441C1041.89 187.707 1042.39 187.84 1043 187.84C1043.47 187.84 1043.87 187.746 1044.18 187.559C1044.49 187.371 1044.73 187.105 1044.91 186.762C1045.09 186.418 1045.21 186.016 1045.28 185.555C1045.35 185.086 1045.39 184.578 1045.39 184.031ZM1051.05 177.574H1054.43V191.016C1054.43 191.953 1054.26 192.746 1053.92 193.395C1053.57 194.043 1053.08 194.535 1052.43 194.871C1051.78 195.207 1051 195.375 1050.07 195.375C1049.79 195.375 1049.5 195.359 1049.23 195.328C1048.95 195.297 1048.66 195.246 1048.36 195.176L1048.38 192.586C1048.56 192.617 1048.75 192.641 1048.93 192.656C1049.1 192.68 1049.27 192.691 1049.45 192.691C1049.8 192.691 1050.1 192.633 1050.33 192.516C1050.57 192.398 1050.74 192.215 1050.86 191.965C1050.98 191.723 1051.05 191.406 1051.05 191.016V177.574ZM1050.78 174.27C1050.78 173.777 1050.95 173.371 1051.29 173.051C1051.64 172.73 1052.11 172.57 1052.68 172.57C1053.25 172.57 1053.71 172.73 1054.06 173.051C1054.4 173.371 1054.57 173.777 1054.57 174.27C1054.57 174.762 1054.4 175.168 1054.06 175.488C1053.71 175.809 1053.25 175.969 1052.68 175.969C1052.11 175.969 1051.64 175.809 1051.29 175.488C1050.95 175.168 1050.78 174.762 1050.78 174.27ZM1062.95 190.488C1061.97 190.488 1061.09 190.332 1060.3 190.02C1059.52 189.699 1058.86 189.258 1058.31 188.695C1057.77 188.133 1057.36 187.48 1057.07 186.738C1056.78 185.988 1056.64 185.191 1056.64 184.348V183.879C1056.64 182.918 1056.77 182.039 1057.05 181.242C1057.32 180.445 1057.71 179.754 1058.22 179.168C1058.73 178.582 1059.36 178.133 1060.09 177.82C1060.83 177.5 1061.66 177.34 1062.58 177.34C1063.48 177.34 1064.27 177.488 1064.97 177.785C1065.66 178.082 1066.25 178.504 1066.71 179.051C1067.19 179.598 1067.55 180.254 1067.79 181.02C1068.04 181.777 1068.16 182.621 1068.16 183.551V184.957H1058.08V182.707H1064.84V182.449C1064.84 181.98 1064.75 181.562 1064.58 181.195C1064.42 180.82 1064.17 180.523 1063.83 180.305C1063.5 180.086 1063.07 179.977 1062.54 179.977C1062.1 179.977 1061.71 180.074 1061.39 180.27C1061.07 180.465 1060.81 180.738 1060.61 181.09C1060.41 181.441 1060.27 181.855 1060.16 182.332C1060.07 182.801 1060.02 183.316 1060.02 183.879V184.348C1060.02 184.855 1060.09 185.324 1060.23 185.754C1060.38 186.184 1060.59 186.555 1060.86 186.867C1061.13 187.18 1061.46 187.422 1061.84 187.594C1062.23 187.766 1062.67 187.852 1063.16 187.852C1063.77 187.852 1064.34 187.734 1064.86 187.5C1065.39 187.258 1065.85 186.895 1066.23 186.41L1067.88 188.191C1067.61 188.574 1067.25 188.941 1066.79 189.293C1066.33 189.645 1065.79 189.934 1065.14 190.16C1064.5 190.379 1063.77 190.488 1062.95 190.488ZM1075.32 187.852C1075.73 187.852 1076.1 187.773 1076.42 187.617C1076.74 187.453 1076.99 187.227 1077.17 186.938C1077.36 186.641 1077.45 186.293 1077.46 185.895H1080.64C1080.63 186.785 1080.39 187.578 1079.92 188.273C1079.45 188.961 1078.82 189.504 1078.04 189.902C1077.25 190.293 1076.36 190.488 1075.39 190.488C1074.4 190.488 1073.54 190.324 1072.81 189.996C1072.08 189.668 1071.48 189.215 1070.99 188.637C1070.51 188.051 1070.14 187.371 1069.9 186.598C1069.66 185.816 1069.54 184.98 1069.54 184.09V183.75C1069.54 182.852 1069.66 182.016 1069.9 181.242C1070.14 180.461 1070.51 179.781 1070.99 179.203C1071.48 178.617 1072.08 178.16 1072.81 177.832C1073.54 177.504 1074.39 177.34 1075.36 177.34C1076.4 177.34 1077.31 177.539 1078.09 177.938C1078.88 178.336 1079.5 178.906 1079.95 179.648C1080.4 180.383 1080.63 181.254 1080.64 182.262H1077.46C1077.45 181.84 1077.36 181.457 1077.19 181.113C1077.03 180.77 1076.79 180.496 1076.46 180.293C1076.15 180.082 1075.77 179.977 1075.3 179.977C1074.81 179.977 1074.41 180.082 1074.1 180.293C1073.79 180.496 1073.54 180.777 1073.37 181.137C1073.2 181.488 1073.08 181.891 1073.01 182.344C1072.95 182.789 1072.91 183.258 1072.91 183.75V184.09C1072.91 184.582 1072.95 185.055 1073.01 185.508C1073.07 185.961 1073.19 186.363 1073.36 186.715C1073.54 187.066 1073.79 187.344 1074.1 187.547C1074.41 187.75 1074.82 187.852 1075.32 187.852ZM1088.8 177.574V179.965H1081.42V177.574H1088.8ZM1083.25 174.445H1086.62V186.434C1086.62 186.801 1086.67 187.082 1086.77 187.277C1086.87 187.473 1087.02 187.609 1087.21 187.688C1087.41 187.758 1087.65 187.793 1087.95 187.793C1088.16 187.793 1088.35 187.785 1088.51 187.77C1088.68 187.746 1088.83 187.723 1088.95 187.699L1088.96 190.184C1088.67 190.277 1088.36 190.352 1088.02 190.406C1087.68 190.461 1087.31 190.488 1086.91 190.488C1086.16 190.488 1085.52 190.367 1084.96 190.125C1084.41 189.875 1083.99 189.477 1083.7 188.93C1083.4 188.383 1083.25 187.664 1083.25 186.773V174.445ZM1097.38 181.605V184.254H1090.76V181.605H1097.38ZM1107.04 187.395V181.746C1107.04 181.34 1106.97 180.992 1106.84 180.703C1106.71 180.406 1106.5 180.176 1106.22 180.012C1105.95 179.848 1105.59 179.766 1105.15 179.766C1104.78 179.766 1104.45 179.832 1104.18 179.965C1103.91 180.09 1103.7 180.273 1103.55 180.516C1103.4 180.75 1103.32 181.027 1103.32 181.348H1099.95C1099.95 180.809 1100.07 180.297 1100.32 179.812C1100.57 179.328 1100.94 178.902 1101.41 178.535C1101.89 178.16 1102.46 177.867 1103.11 177.656C1103.78 177.445 1104.52 177.34 1105.34 177.34C1106.32 177.34 1107.2 177.504 1107.96 177.832C1108.73 178.16 1109.33 178.652 1109.77 179.309C1110.21 179.965 1110.44 180.785 1110.44 181.77V187.195C1110.44 187.891 1110.48 188.461 1110.57 188.906C1110.65 189.344 1110.78 189.727 1110.94 190.055V190.254H1107.53C1107.37 189.91 1107.24 189.48 1107.16 188.965C1107.08 188.441 1107.04 187.918 1107.04 187.395ZM1107.48 182.531L1107.51 184.441H1105.62C1105.18 184.441 1104.79 184.492 1104.46 184.594C1104.13 184.695 1103.86 184.84 1103.65 185.027C1103.44 185.207 1103.29 185.418 1103.18 185.66C1103.09 185.902 1103.04 186.168 1103.04 186.457C1103.04 186.746 1103.11 187.008 1103.24 187.242C1103.38 187.469 1103.57 187.648 1103.82 187.781C1104.07 187.906 1104.36 187.969 1104.7 187.969C1105.2 187.969 1105.64 187.867 1106.02 187.664C1106.39 187.461 1106.68 187.211 1106.89 186.914C1107.1 186.617 1107.21 186.336 1107.21 186.07L1108.11 187.5C1107.98 187.82 1107.81 188.152 1107.59 188.496C1107.38 188.84 1107.11 189.164 1106.78 189.469C1106.45 189.766 1106.06 190.012 1105.6 190.207C1105.14 190.395 1104.59 190.488 1103.96 190.488C1103.15 190.488 1102.42 190.328 1101.77 190.008C1101.12 189.68 1100.6 189.23 1100.22 188.66C1099.84 188.082 1099.66 187.426 1099.66 186.691C1099.66 186.027 1099.78 185.438 1100.03 184.922C1100.28 184.406 1100.65 183.973 1101.13 183.621C1101.62 183.262 1102.24 182.992 1102.97 182.812C1103.71 182.625 1104.56 182.531 1105.53 182.531H1107.48ZM1116.6 172.254V190.254H1113.21V172.254H1116.6ZM1125.6 177.574V179.965H1118.22V177.574H1125.6ZM1120.05 174.445H1123.42V186.434C1123.42 186.801 1123.47 187.082 1123.56 187.277C1123.66 187.473 1123.81 187.609 1124.01 187.688C1124.2 187.758 1124.45 187.793 1124.75 187.793C1124.96 187.793 1125.14 187.785 1125.31 187.77C1125.48 187.746 1125.62 187.723 1125.74 187.699L1125.75 190.184C1125.46 190.277 1125.15 190.352 1124.82 190.406C1124.48 190.461 1124.11 190.488 1123.7 190.488C1122.96 190.488 1122.31 190.367 1121.76 190.125C1121.21 189.875 1120.79 189.477 1120.49 188.93C1120.2 188.383 1120.05 187.664 1120.05 186.773V174.445Z" fill="#1E1E1E"/>
<rect x="998.5" y="216.254" width="188" height="52" rx="26" fill="#E9AFAF"/>
<path d="M1023.81 232.254H1027.19V247.348L1026.85 250.254H1023.81V232.254ZM1035.21 243.785V244.031C1035.21 244.977 1035.11 245.844 1034.91 246.633C1034.71 247.422 1034.41 248.105 1034 248.684C1033.58 249.254 1033.07 249.699 1032.45 250.02C1031.84 250.332 1031.12 250.488 1030.29 250.488C1029.52 250.488 1028.85 250.332 1028.28 250.02C1027.71 249.707 1027.24 249.266 1026.86 248.695C1026.48 248.125 1026.17 247.457 1025.93 246.691C1025.7 245.926 1025.52 245.09 1025.41 244.184V243.645C1025.52 242.738 1025.7 241.902 1025.93 241.137C1026.17 240.371 1026.48 239.703 1026.86 239.133C1027.24 238.562 1027.71 238.121 1028.28 237.809C1028.84 237.496 1029.5 237.34 1030.27 237.34C1031.11 237.34 1031.83 237.5 1032.45 237.82C1033.07 238.133 1033.59 238.578 1034 239.156C1034.41 239.727 1034.71 240.406 1034.91 241.195C1035.11 241.977 1035.21 242.84 1035.21 243.785ZM1031.84 244.031V243.785C1031.84 243.27 1031.8 242.785 1031.72 242.332C1031.65 241.871 1031.53 241.469 1031.35 241.125C1031.17 240.773 1030.92 240.496 1030.61 240.293C1030.3 240.09 1029.91 239.988 1029.43 239.988C1028.96 239.988 1028.57 240.066 1028.25 240.223C1027.93 240.379 1027.67 240.598 1027.46 240.879C1027.25 241.16 1027.1 241.496 1027 241.887C1026.9 242.27 1026.84 242.691 1026.81 243.152V244.688C1026.84 245.305 1026.94 245.852 1027.12 246.328C1027.3 246.797 1027.59 247.168 1027.96 247.441C1028.34 247.707 1028.84 247.84 1029.45 247.84C1029.93 247.84 1030.32 247.746 1030.63 247.559C1030.95 247.371 1031.19 247.105 1031.36 246.762C1031.54 246.418 1031.66 246.016 1031.73 245.555C1031.8 245.086 1031.84 244.578 1031.84 244.031ZM1044.81 247.219V237.574H1048.19V250.254H1045.01L1044.81 247.219ZM1045.19 244.617L1046.18 244.594C1046.18 245.438 1046.09 246.223 1045.89 246.949C1045.7 247.668 1045.4 248.293 1045.01 248.824C1044.62 249.348 1044.13 249.758 1043.54 250.055C1042.94 250.344 1042.24 250.488 1041.44 250.488C1040.82 250.488 1040.25 250.402 1039.73 250.23C1039.21 250.051 1038.77 249.773 1038.39 249.398C1038.02 249.016 1037.73 248.527 1037.52 247.934C1037.32 247.332 1037.22 246.609 1037.22 245.766V237.574H1040.59V245.789C1040.59 246.164 1040.64 246.48 1040.72 246.738C1040.82 246.996 1040.95 247.207 1041.11 247.371C1041.27 247.535 1041.46 247.652 1041.68 247.723C1041.91 247.793 1042.16 247.828 1042.43 247.828C1043.13 247.828 1043.68 247.688 1044.07 247.406C1044.48 247.125 1044.77 246.742 1044.93 246.258C1045.1 245.766 1045.19 245.219 1045.19 244.617ZM1056.98 237.574V239.965H1049.59V237.574H1056.98ZM1051.42 234.445H1054.8V246.434C1054.8 246.801 1054.84 247.082 1054.94 247.277C1055.04 247.473 1055.19 247.609 1055.38 247.688C1055.58 247.758 1055.82 247.793 1056.12 247.793C1056.33 247.793 1056.52 247.785 1056.68 247.77C1056.86 247.746 1057 247.723 1057.12 247.699L1057.13 250.184C1056.84 250.277 1056.53 250.352 1056.19 250.406C1055.86 250.461 1055.48 250.488 1055.08 250.488C1054.34 250.488 1053.69 250.367 1053.13 250.125C1052.59 249.875 1052.16 249.477 1051.87 248.93C1051.57 248.383 1051.42 247.664 1051.42 246.773V234.445ZM1065.11 237.574V239.965H1057.73V237.574H1065.11ZM1059.55 234.445H1062.93V246.434C1062.93 246.801 1062.98 247.082 1063.07 247.277C1063.17 247.473 1063.32 247.609 1063.52 247.688C1063.71 247.758 1063.96 247.793 1064.25 247.793C1064.46 247.793 1064.65 247.785 1064.82 247.77C1064.99 247.746 1065.13 247.723 1065.25 247.699L1065.26 250.184C1064.97 250.277 1064.66 250.352 1064.32 250.406C1063.99 250.461 1063.62 250.488 1063.21 250.488C1062.47 250.488 1061.82 250.367 1061.27 250.125C1060.72 249.875 1060.3 249.477 1060 248.93C1059.7 248.383 1059.55 247.664 1059.55 246.773V234.445ZM1066.19 244.043V243.797C1066.19 242.867 1066.32 242.012 1066.59 241.23C1066.85 240.441 1067.24 239.758 1067.75 239.18C1068.25 238.602 1068.88 238.152 1069.62 237.832C1070.36 237.504 1071.21 237.34 1072.18 237.34C1073.14 237.34 1073.99 237.504 1074.74 237.832C1075.49 238.152 1076.12 238.602 1076.63 239.18C1077.14 239.758 1077.54 240.441 1077.8 241.23C1078.07 242.012 1078.2 242.867 1078.2 243.797V244.043C1078.2 244.965 1078.07 245.82 1077.8 246.609C1077.54 247.391 1077.14 248.074 1076.63 248.66C1076.12 249.238 1075.5 249.688 1074.75 250.008C1074.01 250.328 1073.16 250.488 1072.2 250.488C1071.24 250.488 1070.38 250.328 1069.63 250.008C1068.89 249.688 1068.26 249.238 1067.75 248.66C1067.24 248.074 1066.85 247.391 1066.59 246.609C1066.32 245.82 1066.19 244.965 1066.19 244.043ZM1069.56 243.797V244.043C1069.56 244.574 1069.61 245.07 1069.7 245.531C1069.8 245.992 1069.95 246.398 1070.15 246.75C1070.36 247.094 1070.63 247.363 1070.97 247.559C1071.3 247.754 1071.71 247.852 1072.2 247.852C1072.67 247.852 1073.07 247.754 1073.41 247.559C1073.74 247.363 1074.01 247.094 1074.21 246.75C1074.42 246.398 1074.57 245.992 1074.66 245.531C1074.76 245.07 1074.81 244.574 1074.81 244.043V243.797C1074.81 243.281 1074.76 242.797 1074.66 242.344C1074.57 241.883 1074.41 241.477 1074.2 241.125C1074 240.766 1073.73 240.484 1073.39 240.281C1073.06 240.078 1072.65 239.977 1072.18 239.977C1071.7 239.977 1071.29 240.078 1070.96 240.281C1070.63 240.484 1070.36 240.766 1070.15 241.125C1069.95 241.477 1069.8 241.883 1069.7 242.344C1069.61 242.797 1069.56 243.281 1069.56 243.797ZM1083.58 240.281V250.254H1080.2V237.574H1083.37L1083.58 240.281ZM1083.09 243.469H1082.17C1082.17 242.531 1082.29 241.688 1082.54 240.938C1082.78 240.18 1083.12 239.535 1083.55 239.004C1083.99 238.465 1084.51 238.055 1085.11 237.773C1085.72 237.484 1086.4 237.34 1087.15 237.34C1087.75 237.34 1088.29 237.426 1088.78 237.598C1089.27 237.77 1089.7 238.043 1090.05 238.418C1090.41 238.793 1090.68 239.289 1090.87 239.906C1091.06 240.523 1091.16 241.277 1091.16 242.168V250.254H1087.76V242.156C1087.76 241.594 1087.68 241.156 1087.53 240.844C1087.37 240.531 1087.14 240.312 1086.84 240.188C1086.54 240.055 1086.17 239.988 1085.73 239.988C1085.28 239.988 1084.89 240.078 1084.55 240.258C1084.22 240.438 1083.95 240.688 1083.73 241.008C1083.52 241.32 1083.36 241.688 1083.25 242.109C1083.14 242.531 1083.09 242.984 1083.09 243.469ZM1100.38 241.605V244.254H1093.76V241.605H1100.38ZM1106.5 240.281V250.254H1103.12V237.574H1106.29L1106.5 240.281ZM1106.01 243.469H1105.09C1105.09 242.531 1105.21 241.688 1105.46 240.938C1105.7 240.18 1106.04 239.535 1106.48 239.004C1106.91 238.465 1107.43 238.055 1108.04 237.773C1108.64 237.484 1109.32 237.34 1110.07 237.34C1110.67 237.34 1111.21 237.426 1111.7 237.598C1112.2 237.77 1112.62 238.043 1112.97 238.418C1113.33 238.793 1113.6 239.289 1113.79 239.906C1113.98 240.523 1114.08 241.277 1114.08 242.168V250.254H1110.68V242.156C1110.68 241.594 1110.61 241.156 1110.45 240.844C1110.29 240.531 1110.06 240.312 1109.76 240.188C1109.46 240.055 1109.09 239.988 1108.66 239.988C1108.2 239.988 1107.81 240.078 1107.47 240.258C1107.14 240.438 1106.87 240.688 1106.65 241.008C1106.44 241.32 1106.28 241.688 1106.17 242.109C1106.06 242.531 1106.01 242.984 1106.01 243.469ZM1123.49 247.395V241.746C1123.49 241.34 1123.43 240.992 1123.29 240.703C1123.16 240.406 1122.95 240.176 1122.67 240.012C1122.4 239.848 1122.04 239.766 1121.61 239.766C1121.23 239.766 1120.91 239.832 1120.63 239.965C1120.36 240.09 1120.15 240.273 1120 240.516C1119.85 240.75 1119.78 241.027 1119.78 241.348H1116.4C1116.4 240.809 1116.53 240.297 1116.78 239.812C1117.03 239.328 1117.39 238.902 1117.87 238.535C1118.34 238.16 1118.91 237.867 1119.57 237.656C1120.23 237.445 1120.97 237.34 1121.79 237.34C1122.78 237.34 1123.65 237.504 1124.42 237.832C1125.18 238.16 1125.79 238.652 1126.22 239.309C1126.67 239.965 1126.89 240.785 1126.89 241.77V247.195C1126.89 247.891 1126.93 248.461 1127.02 248.906C1127.11 249.344 1127.23 249.727 1127.39 250.055V250.254H1123.98C1123.82 249.91 1123.7 249.48 1123.61 248.965C1123.53 248.441 1123.49 247.918 1123.49 247.395ZM1123.94 242.531L1123.96 244.441H1122.07C1121.63 244.441 1121.24 244.492 1120.91 244.594C1120.59 244.695 1120.32 244.84 1120.11 245.027C1119.89 245.207 1119.74 245.418 1119.64 245.66C1119.54 245.902 1119.5 246.168 1119.5 246.457C1119.5 246.746 1119.56 247.008 1119.7 247.242C1119.83 247.469 1120.02 247.648 1120.27 247.781C1120.52 247.906 1120.81 247.969 1121.15 247.969C1121.66 247.969 1122.1 247.867 1122.47 247.664C1122.85 247.461 1123.14 247.211 1123.34 246.914C1123.55 246.617 1123.66 246.336 1123.67 246.07L1124.56 247.5C1124.43 247.82 1124.26 248.152 1124.04 248.496C1123.83 248.84 1123.56 249.164 1123.23 249.469C1122.91 249.766 1122.51 250.012 1122.05 250.207C1121.59 250.395 1121.04 250.488 1120.41 250.488C1119.61 250.488 1118.88 250.328 1118.22 250.008C1117.57 249.68 1117.05 249.23 1116.67 248.66C1116.3 248.082 1116.11 247.426 1116.11 246.691C1116.11 246.027 1116.23 245.438 1116.48 244.922C1116.73 244.406 1117.1 243.973 1117.59 243.621C1118.08 243.262 1118.69 242.992 1119.43 242.812C1120.16 242.625 1121.01 242.531 1121.98 242.531H1123.94ZM1132.87 240.199V250.254H1129.48V237.574H1132.66L1132.87 240.199ZM1132.4 243.469H1131.46C1131.46 242.586 1131.57 241.773 1131.78 241.031C1132 240.281 1132.31 239.633 1132.73 239.086C1133.15 238.531 1133.67 238.102 1134.29 237.797C1134.9 237.492 1135.62 237.34 1136.43 237.34C1136.99 237.34 1137.51 237.426 1137.98 237.598C1138.45 237.762 1138.85 238.023 1139.18 238.383C1139.53 238.734 1139.79 239.195 1139.98 239.766C1140.17 240.328 1140.26 241.004 1140.26 241.793V250.254H1136.89V242.168C1136.89 241.59 1136.81 241.145 1136.65 240.832C1136.5 240.52 1136.27 240.301 1135.98 240.176C1135.7 240.051 1135.36 239.988 1134.96 239.988C1134.53 239.988 1134.14 240.078 1133.82 240.258C1133.5 240.438 1133.23 240.688 1133.02 241.008C1132.81 241.32 1132.65 241.688 1132.55 242.109C1132.45 242.531 1132.4 242.984 1132.4 243.469ZM1139.95 243.082L1138.74 243.234C1138.74 242.406 1138.84 241.637 1139.04 240.926C1139.25 240.215 1139.56 239.59 1139.97 239.051C1140.38 238.512 1140.89 238.094 1141.5 237.797C1142.11 237.492 1142.82 237.34 1143.61 237.34C1144.22 237.34 1144.78 237.43 1145.28 237.609C1145.78 237.781 1146.2 238.059 1146.55 238.441C1146.91 238.816 1147.19 239.309 1147.38 239.918C1147.57 240.527 1147.67 241.273 1147.67 242.156V250.254H1144.28V242.156C1144.28 241.57 1144.2 241.125 1144.05 240.82C1143.9 240.508 1143.68 240.293 1143.39 240.176C1143.11 240.051 1142.77 239.988 1142.38 239.988C1141.98 239.988 1141.62 240.07 1141.32 240.234C1141.01 240.391 1140.76 240.609 1140.55 240.891C1140.35 241.172 1140.2 241.5 1140.1 241.875C1140 242.242 1139.95 242.645 1139.95 243.082ZM1156.12 250.488C1155.13 250.488 1154.25 250.332 1153.47 250.02C1152.69 249.699 1152.02 249.258 1151.48 248.695C1150.94 248.133 1150.52 247.48 1150.23 246.738C1149.95 245.988 1149.8 245.191 1149.8 244.348V243.879C1149.8 242.918 1149.94 242.039 1150.21 241.242C1150.48 240.445 1150.88 239.754 1151.38 239.168C1151.9 238.582 1152.52 238.133 1153.26 237.82C1153.99 237.5 1154.82 237.34 1155.74 237.34C1156.64 237.34 1157.44 237.488 1158.13 237.785C1158.83 238.082 1159.41 238.504 1159.88 239.051C1160.36 239.598 1160.71 240.254 1160.96 241.02C1161.2 241.777 1161.32 242.621 1161.32 243.551V244.957H1151.24V242.707H1158V242.449C1158 241.98 1157.92 241.562 1157.75 241.195C1157.58 240.82 1157.33 240.523 1157 240.305C1156.66 240.086 1156.23 239.977 1155.71 239.977C1155.26 239.977 1154.88 240.074 1154.56 240.27C1154.24 240.465 1153.98 240.738 1153.77 241.09C1153.58 241.441 1153.43 241.855 1153.33 242.332C1153.23 242.801 1153.19 243.316 1153.19 243.879V244.348C1153.19 244.855 1153.26 245.324 1153.4 245.754C1153.55 246.184 1153.75 246.555 1154.02 246.867C1154.29 247.18 1154.62 247.422 1155 247.594C1155.39 247.766 1155.84 247.852 1156.33 247.852C1156.94 247.852 1157.5 247.734 1158.03 247.5C1158.56 247.258 1159.02 246.895 1159.4 246.41L1161.04 248.191C1160.77 248.574 1160.41 248.941 1159.95 249.293C1159.5 249.645 1158.95 249.934 1158.31 250.16C1157.67 250.379 1156.94 250.488 1156.12 250.488Z" fill="#1E1E1E"/>
</svg>
