<svg width="1320" height="199" viewBox="0 0 1320 199" fill="none" xmlns="http://www.w3.org/2000/svg">
<rect width="1320" height="198" transform="translate(0 0.253906)" fill="white"/>
<rect x="259.5" y="73.2539" width="143" height="52" rx="26" fill="#FFD800"/>
<path d="M300.66 87.1659V100.846H303.708V87.1659H300.66ZM296.412 87.5499V100.798H299.412V87.5499H296.412ZM293.148 98.0139V100.126H297.612V98.0139H293.148ZM288.684 96.4539V100.702H291.708V96.4539H288.684ZM284.604 97.7499C287.508 97.7499 292.116 97.7019 295.74 96.8859L295.524 94.7739C291.996 95.3259 287.196 95.3739 284.316 95.3739L284.604 97.7499ZM287.892 101.566V109.15H303.708V101.566H300.54V103.006H291.06V101.566H287.892ZM291.06 105.382H300.54V106.702H291.06V105.382ZM290.1 87.9099C287.196 87.9099 285.228 89.2059 285.228 91.2219C285.228 93.2619 287.196 94.5819 290.1 94.5819C292.98 94.5819 294.948 93.2619 294.948 91.2219C294.948 89.2059 292.98 87.9099 290.1 87.9099ZM290.1 90.0939C291.324 90.0939 292.116 90.4539 292.116 91.2219C292.116 92.0379 291.324 92.3739 290.1 92.3739C288.852 92.3739 288.084 92.0379 288.084 91.2219C288.084 90.4539 288.852 90.0939 290.1 90.0939ZM324.539 92.1339V94.7019H328.763V92.1339H324.539ZM327.923 87.1659V99.3099H331.115V87.1659H327.923ZM316.355 100.222V109.15H331.115V100.222H327.947V102.238H319.523V100.222H316.355ZM319.523 104.71H327.947V106.606H319.523V104.71ZM317.651 88.8699V90.2859C317.651 93.0939 316.067 95.9979 312.395 97.1979L314.003 99.7419C318.275 98.3259 320.243 94.4619 320.243 90.2859V88.8699H317.651ZM318.323 88.8699V90.2859C318.323 94.2459 320.219 97.9179 324.347 99.2859L325.907 96.8139C322.403 95.6379 320.891 92.8779 320.891 90.2859V88.8699H318.323ZM313.259 88.1739V90.7179H325.211V88.1739H313.259ZM337.065 88.3899V90.9339H351.105V88.3899H337.065ZM334.617 96.9819V99.5499H354.729V96.9819H334.617ZM349.233 88.3899V90.3099C349.233 92.3739 349.233 94.5819 348.537 97.6779L351.681 97.9659C352.377 94.7739 352.377 92.4219 352.377 90.3099V88.3899H349.233ZM337.137 106.438V109.006H353.001V106.438H337.137ZM337.137 101.446V106.702H340.305V101.446H337.137ZM361.831 88.3179V90.3099C361.831 93.3579 360.271 96.3579 356.479 97.5819L358.135 100.15C362.503 98.6859 364.495 94.7739 364.495 90.3099V88.3179H361.831ZM362.503 88.3179V90.1659C362.503 94.4859 364.279 98.0619 368.383 99.4779L370.039 96.9819C366.511 95.8539 365.071 93.1179 365.071 90.1659V88.3179H362.503ZM372.079 87.1659V100.174H375.271V87.1659H372.079ZM367.735 100.75C363.031 100.75 360.127 102.358 360.127 105.07C360.127 107.806 363.031 109.39 367.735 109.39C372.439 109.39 375.343 107.806 375.343 105.07C375.343 102.358 372.439 100.75 367.735 100.75ZM367.735 103.222C370.639 103.222 372.175 103.822 372.175 105.07C372.175 106.318 370.639 106.942 367.735 106.942C364.855 106.942 363.319 106.318 363.319 105.07C363.319 103.822 364.855 103.222 367.735 103.222ZM368.023 91.1979V93.7899H372.535V91.1979H368.023Z" fill="#1E1E1E"/>
<path d="M452.602 101.047L440.708 96.7979V91.8066L456.869 98.5977V102.179L452.602 101.047ZM440.708 104.609L452.62 100.268L456.869 99.2471V102.81L440.708 109.601V104.609Z" fill="#1E1E1E"/>
<rect x="494.5" y="73.2539" width="187" height="52" rx="26" fill="#FFE972"/>
<path d="M534.724 87.1899V103.15H537.94V87.1899H534.724ZM523.132 106.462V109.006H538.492V106.462H523.132ZM523.132 101.542V107.494H526.324V101.542H523.132ZM525.844 88.5819C522.436 88.5819 519.796 90.9339 519.796 94.2219C519.796 97.4859 522.436 99.8619 525.844 99.8619C529.252 99.8619 531.868 97.4859 531.868 94.2219C531.868 90.9339 529.252 88.5819 525.844 88.5819ZM525.844 91.3419C527.476 91.3419 528.748 92.3979 528.748 94.2219C528.748 96.0219 527.476 97.0779 525.844 97.0779C524.188 97.0779 522.916 96.0219 522.916 94.2219C522.916 92.3979 524.188 91.3419 525.844 91.3419ZM546.746 88.1739V90.3099C546.746 93.1179 545.186 95.9979 541.442 97.1979L543.002 99.7179C547.346 98.3259 549.386 94.5099 549.386 90.3099V88.1739H546.746ZM547.394 88.1739V90.3099C547.394 94.4379 549.362 97.9899 553.61 99.3339L555.17 96.8379C551.546 95.7339 550.01 93.0459 550.01 90.3099V88.1739H547.394ZM544.85 101.398V103.942H556.802V109.39H560.018V101.398H544.85ZM556.802 87.1659V100.414H560.018V87.1659H556.802ZM570.768 88.6299C567.288 88.6299 564.624 90.9099 564.624 94.1019C564.624 97.3179 567.288 99.5979 570.768 99.5979C574.272 99.5979 576.888 97.3179 576.888 94.1019C576.888 90.9099 574.272 88.6299 570.768 88.6299ZM570.768 91.3659C572.472 91.3659 573.768 92.3739 573.768 94.1019C573.768 95.8539 572.472 96.8619 570.768 96.8619C569.064 96.8619 567.768 95.8539 567.768 94.1019C567.768 92.3739 569.064 91.3659 570.768 91.3659ZM578.976 87.1419V109.438H582.168V87.1419H578.976ZM564.096 104.926C567.936 104.926 573.168 104.878 577.992 103.918L577.752 101.614C573.072 102.31 567.624 102.358 563.712 102.358L564.096 104.926ZM596.183 94.6059V98.6859H599.375V94.6059H596.183ZM604.007 94.6059V98.6859H607.175V94.6059H604.007ZM591.671 97.7019V100.222H611.759V97.7019H591.671ZM601.679 101.35C596.855 101.35 593.951 102.79 593.951 105.358C593.951 107.95 596.855 109.39 601.679 109.39C606.479 109.39 609.383 107.95 609.383 105.358C609.383 102.79 606.479 101.35 601.679 101.35ZM601.679 103.75C604.655 103.75 606.167 104.254 606.167 105.358C606.167 106.486 604.655 106.99 601.679 106.99C598.703 106.99 597.191 106.486 597.191 105.358C597.191 104.254 598.703 103.75 601.679 103.75ZM601.727 87.4779C596.807 87.4779 593.687 89.1099 593.687 91.7739C593.687 94.4139 596.807 95.9979 601.727 95.9979C606.623 95.9979 609.767 94.4139 609.767 91.7739C609.767 89.1099 606.623 87.4779 601.727 87.4779ZM601.727 89.9259C604.775 89.9259 606.479 90.5259 606.479 91.7739C606.479 92.9979 604.775 93.5979 601.727 93.5979C598.679 93.5979 596.975 92.9979 596.975 91.7739C596.975 90.5259 598.679 89.9259 601.727 89.9259ZM628.989 87.1419V109.438H632.205V87.1419H628.989ZM620.229 88.7019C616.869 88.7019 614.397 91.7739 614.397 96.6219C614.397 101.518 616.869 104.59 620.229 104.59C623.589 104.59 626.061 101.518 626.061 96.6219C626.061 91.7739 623.589 88.7019 620.229 88.7019ZM620.229 91.6059C621.885 91.6059 622.989 93.3579 622.989 96.6219C622.989 99.9339 621.885 101.71 620.229 101.71C618.573 101.71 617.445 99.9339 617.445 96.6219C617.445 93.3579 618.573 91.6059 620.229 91.6059ZM640.987 88.3179V90.3099C640.987 93.3579 639.427 96.3579 635.635 97.5819L637.291 100.15C641.659 98.6859 643.651 94.7739 643.651 90.3099V88.3179H640.987ZM641.659 88.3179V90.1659C641.659 94.4859 643.435 98.0619 647.539 99.4779L649.195 96.9819C645.667 95.8539 644.227 93.1179 644.227 90.1659V88.3179H641.659ZM651.235 87.1659V100.174H654.427V87.1659H651.235ZM646.891 100.75C642.187 100.75 639.283 102.358 639.283 105.07C639.283 107.806 642.187 109.39 646.891 109.39C651.595 109.39 654.499 107.806 654.499 105.07C654.499 102.358 651.595 100.75 646.891 100.75ZM646.891 103.222C649.795 103.222 651.331 103.822 651.331 105.07C651.331 106.318 649.795 106.942 646.891 106.942C644.011 106.942 642.475 106.318 642.475 105.07C642.475 103.822 644.011 103.222 646.891 103.222ZM647.179 91.1979V93.7899H651.691V91.1979H647.179Z" fill="#1E1E1E"/>
<path d="M731.602 101.047L719.708 96.7979V91.8066L735.869 98.5977V102.179L731.602 101.047ZM719.708 104.609L731.62 100.268L735.869 99.2471V102.81L719.708 109.601V104.609Z" fill="#1E1E1E"/>
<rect x="773.5" y="73.2539" width="287" height="52" rx="26" fill="#FFF6C1"/>
<path d="M803.596 89.3739V90.7899C803.596 93.5739 802.012 96.5019 798.34 97.7019L799.948 100.222C804.22 98.8299 806.188 94.9659 806.188 90.7899V89.3739H803.596ZM804.268 89.3739V90.7899C804.268 94.7259 806.164 98.4219 810.292 99.7899L811.852 97.2939C808.348 96.1179 806.836 93.3819 806.836 90.7899V89.3739H804.268ZM810.556 92.4699V95.0619H814.78V92.4699H810.556ZM799.204 88.3899V90.9099H811.156V88.3899H799.204ZM801.916 101.398V103.942H813.868V109.39H817.06V101.398H801.916ZM813.868 87.1659V100.39H817.06V87.1659H813.868ZM832.562 91.7019V94.2219H838.058V91.7019H832.562ZM825.578 89.0379V90.2619C825.578 92.6379 823.922 95.3259 820.346 96.4779L821.858 98.9499C826.106 97.7019 828.17 94.0059 828.17 90.2619V89.0379H825.578ZM826.226 89.0379V90.2619C826.226 93.9579 828.17 97.2939 832.322 98.4939L833.786 95.9979C830.33 94.9899 828.818 92.5899 828.818 90.2619V89.0379H826.226ZM821.186 87.9819V90.5259H833.138V87.9819H821.186ZM835.946 87.1659V98.4459H839.138V87.1659H835.946ZM824.45 99.3339V101.806H835.97V103.054H824.474V108.142H827.642V105.358H839.138V99.3339H824.45ZM824.474 106.702V109.174H839.762V106.702H824.474ZM856.92 87.1899V103.798H860.112V87.1899H856.92ZM859.2 93.9579V96.5739H863.064V93.9579H859.2ZM842.616 89.4939V91.9899H855.696V89.4939H842.616ZM849.168 92.7819C845.952 92.7819 843.696 94.5339 843.696 97.0779C843.696 99.6219 845.952 101.35 849.168 101.35C852.36 101.35 854.616 99.6219 854.616 97.0779C854.616 94.5339 852.36 92.7819 849.168 92.7819ZM849.168 95.2059C850.584 95.2059 851.568 95.8779 851.568 97.0779C851.568 98.2779 850.584 98.9259 849.168 98.9259C847.752 98.9259 846.768 98.2779 846.768 97.0779C846.768 95.8779 847.752 95.2059 849.168 95.2059ZM847.56 87.1419V90.7179H850.752V87.1419H847.56ZM845.784 106.462V109.006H860.904V106.462H845.784ZM845.784 102.55V107.566H848.976V102.55H845.784ZM886.727 87.1659V109.39H889.751V87.1659H886.727ZM883.751 95.7099V98.2779H887.447V95.7099H883.751ZM881.759 87.5499V108.334H884.711V87.5499H881.759ZM871.295 101.758V104.374H872.855C875.711 104.374 878.063 104.302 880.751 103.774L880.511 101.182C877.871 101.662 875.591 101.758 872.855 101.758H871.295ZM871.295 89.7339V103.006H874.463V92.3019H879.503V89.7339H871.295ZM901.797 95.5899V98.1579H905.325V95.5899H901.797ZM896.637 93.3339V93.9099C896.637 97.3179 895.509 100.966 892.341 102.814L894.141 105.214C897.693 103.174 899.037 98.5419 899.037 93.9099V93.3339H896.637ZM897.261 93.3339V93.9099C897.261 98.4699 898.629 102.814 902.229 104.686L903.957 102.334C900.813 100.654 899.661 97.2699 899.661 93.9099V93.3339H897.261ZM893.181 90.8859V93.4539H903.093V90.8859H893.181ZM896.637 87.9099V92.9739H899.661V87.9099H896.637ZM908.805 87.1659V109.39H911.829V87.1659H908.805ZM904.317 87.5259V108.382H907.293V87.5259H904.317ZM930.188 92.8059V95.3499H933.572V92.8059H930.188ZM921.668 97.5819V100.078H923.18C926.468 100.078 928.58 100.03 931.1 99.5979L930.812 97.1019C928.388 97.5099 926.348 97.5819 923.18 97.5819H921.668ZM921.668 88.6299V98.6859H924.74V91.1499H930.044V88.6299H921.668ZM923.828 93.1179V95.5179H929.228V93.1179H923.828ZM924.452 101.926V104.446H936.572V109.39H939.74V101.926H924.452ZM936.716 87.1659V101.038H939.74V87.1659H936.716ZM932.372 87.5979V100.894H935.348V87.5979H932.372ZM951.138 88.4379V90.0459C951.138 93.2379 948.378 96.7659 943.362 97.6299L944.73 100.27C950.49 99.1419 953.922 94.8699 953.922 90.0459V88.4379H951.138ZM951.786 88.4379V90.0459C951.786 94.9419 955.194 99.1419 960.954 100.27L962.322 97.6299C957.282 96.7659 954.546 93.3099 954.546 90.0459V88.4379H951.786ZM942.906 104.086V106.678H963.018V104.086H942.906ZM967.336 98.6139V101.11H982.96V98.6139H967.336ZM964.984 104.254V106.846H985.096V104.254H964.984ZM967.336 88.7739V99.3099H970.576V91.3419H982.768V88.7739H967.336ZM969.592 93.6699V96.1419H982.264V93.6699H969.592ZM1009.07 87.1659V109.39H1012.09V87.1659H1009.07ZM1001.75 94.7499V97.3419H1005.42V94.7499H1001.75ZM1004.58 87.5259V108.382H1007.56V87.5259H1004.58ZM996.951 90.7899V93.0699C996.951 96.8619 995.823 100.846 992.559 102.886L994.455 105.238C997.983 103.03 999.351 98.0619 999.351 93.0699V90.7899H996.951ZM997.671 90.7899V93.0699C997.671 97.9659 998.967 102.622 1002.49 104.71L1004.37 102.382C1001.15 100.51 1000.05 96.7659 1000.05 93.0699V90.7899H997.671ZM993.399 89.3979V91.9659H1003.31V89.3979H993.399ZM1025.03 100.99C1020.23 100.99 1017.16 102.574 1017.16 105.214C1017.16 107.806 1020.23 109.39 1025.03 109.39C1029.83 109.39 1032.9 107.806 1032.9 105.214C1032.9 102.574 1029.83 100.99 1025.03 100.99ZM1025.03 103.39C1028.03 103.39 1029.73 104.014 1029.73 105.214C1029.73 106.39 1028.03 106.99 1025.03 106.99C1022.03 106.99 1020.32 106.39 1020.32 105.214C1020.32 104.014 1022.03 103.39 1025.03 103.39ZM1017.4 88.1499V90.6699H1031.46V88.1499H1017.4ZM1015.14 97.0779V99.6219H1035.16V97.0779H1015.14ZM1022.56 93.2139V97.7259H1025.72V93.2139H1022.56ZM1029.61 88.1499V89.9739C1029.61 91.7019 1029.61 93.3099 1029.01 95.5899L1032.18 95.9259C1032.78 93.6219 1032.78 91.7259 1032.78 89.9739V88.1499H1029.61Z" fill="#1E1E1E"/>
</svg>
