<svg viewBox="0 0 800 600" height="600" width="800" xmlns="http://www.w3.org/2000/svg" version="1.1">
    <g transform-origin="center" transform="scale(1, 1) rotate(0)">
        <rect x="0" y="0" width="800" height="600" fill="#FFFFFF"></rect>
        <linearGradient id="linear-gradient-r0">
            <stop offset="0%" stop-color="#1a374d00" stop-opacity="100%"></stop>
            <stop offset="100%" stop-color="#205375" stop-opacity="100%"></stop>
        </linearGradient>
        <filter id="shadow-r0" x="0" width="100%" y="-20%" height="150%">
            <feDropShadow dx="0" dy="2" stdDeviation="10" flood-color="#00000061"></feDropShadow>
        </filter>
        <path d="M0 0 0,368.70460765482864 C 40.00000000000001,368.38485679384326 120,362.7878695867025 200,367.1058533499018 C 280,371.4238371131011 320,390.9888291718439 400,390.29452647082513 C 480,389.6002237698064 520,372.70622240407397 600,363.63433984480804 C 680,354.5624572855421 760,348.674958908558 800,344.9351136744954 L800 600 L0 600Z" fill="none" stroke-linecap="round" stroke-width="1" filter="url(#shadow-r0)" style="transition: all 0.4s cubic-bezier(0.16, 1, 0.3, 1) 0s; fill: url(&quot;#linear-gradient-r0&quot;);"></path>
        <path d="M0 0 0,474.44674614227074 C 40.00000000000001,480.44054352206496 120,505.31304822793857 200,504.4157330412418 C 280,503.5184178545451 320,481.6846500076044 400,469.96017020878696 C 480,458.23569040996955 520,465.77380136266976 600,445.7933340471549 C 680,425.81286673164 760,385.204933714401 800,370.0578336312126 L800 600 L0 600Z" fill="none" stroke-linecap="round" stroke-width="1" filter="url(#shadow-r0)" style="transition: all 0.4s cubic-bezier(0.16, 1, 0.3, 1) 0s; fill: url(&quot;#linear-gradient-r0&quot;);"></path>
        <path d="M0 0 0,618.5369396116585 C 40.00000000000001,610.0867518038799 120,590.6630776111347 200,576.2860005727658 C 280,561.908923534397 320,571.1524894537714 400,546.6515544198143 C 480,522.1506193858571 520,467.13083748326943 600,453.78132540298003 C 680,440.43181332269063 760,474.6794602952898 800,479.9039940183672 L800 600 L0 600Z" fill="none" stroke-linecap="round" stroke-width="1" filter="url(#shadow-r0)" style="transition: all 0.4s cubic-bezier(0.16, 1, 0.3, 1) 0s; fill: url(&quot;#linear-gradient-r0&quot;);"></path>
    </g>
</svg>